<?xml version="1.0" encoding="iso-8859-1"?>
<!-- Generator: Adobe Illustrator 18.1.1, SVG Export Plug-In . SVG Version: 6.00 Build 0)  -->
<svg version="1.1" id="Capa_1" xmlns="http://www.w3.org/2000/svg" xmlns:xlink="http://www.w3.org/1999/xlink" x="0px" y="0px"
	 viewBox="0 0 155.139 155.139" style="enable-background:new 0 0 155.139 155.139;" xml:space="preserve">
<g>
	<path style="fill:#010002;" d="M25.138,139.249c7.781-5.436,14.046-11.438,18.79-18.02c4.744-6.575,7.118-13.706,7.118-21.421
		c0-2.202-0.442-4.779-1.354-7.739c-0.543-1.862-1.462-4.404-2.781-7.632H24.106V73.703h16.212c0,0.346-1.152-1.82-3.455-6.456
		c-2.321-4.642-3.849-8.037-4.6-10.162c-0.68-1.993-1.283-4.326-1.754-6.969c-0.477-2.649-0.716-5.49-0.716-8.521
		c0-10.734,4.362-20.347,13.109-28.85C51.625,4.248,64.156,0,80.457,0c15.347,0,26.97,4.201,34.847,12.59
		c7.864,8.389,11.91,20.263,12.131,35.616h-19.088c0-10.394-2.446-18.282-7.292-23.694c-4.851-5.394-12.232-8.097-22.149-8.097
		c-9.631,0-16.916,2.53-21.875,7.584c-4.953,5.06-7.435,11.2-7.435,18.426c0,3.574,0.77,7.256,2.327,11.045
		c1.557,3.783,4.839,10.532,9.845,20.24h33.868v10.734H66.423c0.68,3.156,1.193,5.639,1.504,7.423
		c0.304,1.796,0.459,3.646,0.459,5.585c0,6.874-2.065,13.676-6.194,20.389c-4.123,6.701-10.603,13.36-19.404,19.971
		c4.744-2.399,9.422-4.32,14.04-5.728c4.6-1.402,9.111-2.112,13.521-2.112c4.947,0,11.504,1.223,19.661,3.67
		c8.145,2.429,13.509,3.652,16.039,3.652c3.24,0,6.206-0.621,8.879-1.862c1.635-0.758,4.165-2.345,7.536-4.756l8.568,13.939
		c-3.855,3.109-7.303,5.406-10.317,6.922c-5.018,2.399-10.353,3.604-15.991,3.604c-4.123,0-11.063-1.581-20.806-4.75
		c-9.732-3.162-17.417-4.75-23.062-4.75c-5.233,0-10.185,0.889-14.863,2.685c-2.751,1.098-6.295,2.948-10.621,5.573L25.138,139.249z
		"/>
</g>
<g>
</g>
<g>
</g>
<g>
</g>
<g>
</g>
<g>
</g>
<g>
</g>
<g>
</g>
<g>
</g>
<g>
</g>
<g>
</g>
<g>
</g>
<g>
</g>
<g>
</g>
<g>
</g>
<g>
</g>
</svg>
