<svg width="16" height="14" viewBox="0 0 16 14" fill="none" xmlns="http://www.w3.org/2000/svg">
<g id="vuesax/bold/building">
<g id="building">
<path id="Vector" d="M7.16583 3.09422L4.2125 1.63422C2.61917 0.854217 1.3125 1.64755 1.3125 3.39422V13.2875C1.3125 14.0476 1.94583 14.6675 2.71917 14.6675H7.66583C8.0325 14.6675 8.3325 14.3675 8.3325 14.0009V4.94088C8.3325 4.24088 7.80583 3.40755 7.16583 3.09422ZM5.97917 9.16755H3.66583C3.3925 9.16755 3.16583 8.94088 3.16583 8.66755C3.16583 8.39422 3.3925 8.16755 3.66583 8.16755H5.97917C6.2525 8.16755 6.47917 8.39422 6.47917 8.66755C6.47917 8.94088 6.25917 9.16755 5.97917 9.16755ZM5.97917 6.50088H3.66583C3.3925 6.50088 3.16583 6.27422 3.16583 6.00088C3.16583 5.72755 3.3925 5.50088 3.66583 5.50088H5.97917C6.2525 5.50088 6.47917 5.72755 6.47917 6.00088C6.47917 6.27422 6.25917 6.50088 5.97917 6.50088Z" fill="#909DB0"/>
<path id="Vector_2" d="M14.6673 12.0273V13.0007C14.6673 13.9207 13.9207 14.6673 13.0007 14.6673H9.98065C9.62065 14.6673 9.33398 14.3807 9.33398 14.0207V12.5807C10.0473 12.6673 10.8007 12.4607 11.3407 12.0273C11.794 12.394 12.374 12.614 13.0073 12.614C13.6273 12.614 14.2073 12.394 14.6673 12.0273Z" fill="#909DB0"/>
<path id="Vector_3" d="M14.6673 10.033V10.0397C14.614 10.913 13.9007 11.613 13.0073 11.613C12.0807 11.613 11.3407 10.8597 11.3407 9.94636C11.3407 10.9664 10.4007 11.7864 9.33398 11.5797V7.99969C9.33398 7.57302 9.72732 7.25302 10.1473 7.34636L11.3407 7.61302L11.6607 7.68636L13.0207 7.99302C13.3473 8.05969 13.6473 8.17302 13.9073 8.33969C13.9073 8.34636 13.914 8.34636 13.914 8.34636C13.9807 8.39302 14.0473 8.44636 14.1073 8.50636C14.414 8.81302 14.614 9.25969 14.6607 9.91302C14.6607 9.95302 14.6673 9.99302 14.6673 10.033Z" fill="#909DB0"/>
</g>
</g>
</svg>
