<svg width="14" height="14" viewBox="0 0 14 14" fill="none" xmlns="http://www.w3.org/2000/svg">
<g id="vuesax/linear/calendar-edit">
<g id="calendar-edit">
<path id="Vector" d="M4.66797 1.16602V2.91602" stroke="#292D32" stroke-miterlimit="10" stroke-linecap="round" stroke-linejoin="round"/>
<path id="Vector_2" d="M9.33203 1.16602V2.91602" stroke="#292D32" stroke-miterlimit="10" stroke-linecap="round" stroke-linejoin="round"/>
<path id="Vector_3" d="M2.04297 5.30273H11.9596" stroke="#292D32" stroke-miterlimit="10" stroke-linecap="round" stroke-linejoin="round"/>
<g id="Group">
<path id="Vector_4" d="M11.2077 9.19949L9.14273 11.2645C9.06107 11.3462 8.98522 11.4978 8.96772 11.6087L8.85689 12.3962C8.81606 12.682 9.0144 12.8803 9.30023 12.8395L10.0877 12.7287C10.1986 12.7112 10.3561 12.6353 10.4319 12.5537L12.4969 10.4887C12.8527 10.1328 13.0219 9.71867 12.4969 9.19367C11.9777 8.6745 11.5636 8.84366 11.2077 9.19949Z" stroke="#292D32" stroke-miterlimit="10" stroke-linecap="round" stroke-linejoin="round"/>
<path id="Vector_5" d="M10.9102 9.49609C11.0852 10.1261 11.5752 10.6161 12.2052 10.7911" stroke="#292D32" stroke-miterlimit="10" stroke-linecap="round" stroke-linejoin="round"/>
</g>
<path id="Vector_6" d="M7 12.8327H4.66667C2.625 12.8327 1.75 11.666 1.75 9.91602V4.95768C1.75 3.20768 2.625 2.04102 4.66667 2.04102H9.33333C11.375 2.04102 12.25 3.20768 12.25 4.95768V6.99935" stroke="#292D32" stroke-miterlimit="10" stroke-linecap="round" stroke-linejoin="round"/>
<path id="Vector_7" d="M6.99549 7.99089H7.00073" stroke="#292D32" stroke-linecap="round" stroke-linejoin="round"/>
<path id="Vector_8" d="M4.83924 7.99089H4.84448" stroke="#292D32" stroke-linecap="round" stroke-linejoin="round"/>
<path id="Vector_9" d="M4.83924 9.74089H4.84448" stroke="#292D32" stroke-linecap="round" stroke-linejoin="round"/>
</g>
</g>
</svg>
