<svg xmlns="http://www.w3.org/2000/svg" width="16" height="16" viewBox="0 0 16 16" fill="none">
  <path d="M2.22222 0C0.998802 0 0 0.998802 0 2.22222V13.7778C0 15.0012 0.998802 16 2.22222 16H13.7778C15.0012 16 16 15.0012 16 13.7778V2.22222C16 0.998802 15.0012 0 13.7778 0H2.22222ZM12.4444 1.77778C13.421 1.77778 14.2222 2.57898 14.2222 3.55556C14.2222 4.53213 13.421 5.33333 12.4444 5.33333C11.4679 5.33333 10.6667 4.53213 10.6667 3.55556C10.6667 2.57898 11.4679 1.77778 12.4444 1.77778ZM6.46701 5.33333C6.76764 5.33333 7.06883 5.4733 7.24132 5.75347L8.97222 8.56771L9.65451 7.52951C9.82563 7.26933 10.1177 7.11209 10.4288 7.11111H10.4306C10.7429 7.11098 11.0366 7.26836 11.2084 7.52951L14.0782 11.9028C14.0782 11.9034 14.0782 11.9039 14.0782 11.9046C14.4671 12.4981 14.0166 13.332 13.3073 13.3334C9.77567 13.3334 6.24361 13.3334 2.71181 13.3334C1.99821 13.3334 1.53739 12.5069 1.91146 11.8993L5.69271 5.75347C5.8652 5.4733 6.16638 5.33333 6.46701 5.33333Z" fill="#D83C38"/>
</svg>