<svg xmlns="http://www.w3.org/2000/svg" width="18" height="18" viewBox="0 0 18 18" fill="none">
  <g clip-path="url(#clip0_1692_6582)">
    <path d="M9 1.125C7.50816 1.125 6.07742 1.71763 5.02252 2.77252C3.96763 3.82742 3.375 5.25816 3.375 6.75V7.875H4.5C4.79837 7.875 5.08452 7.99353 5.2955 8.2045C5.50647 8.41548 5.625 8.70163 5.625 9V12.375C5.625 12.6734 5.50647 12.9595 5.2955 13.1705C5.08452 13.3815 4.79837 13.5 4.5 13.5H3.375C3.07663 13.5 2.79048 13.3815 2.5795 13.1705C2.36853 12.9595 2.25 12.6734 2.25 12.375V6.75C2.25 5.86358 2.42459 4.98583 2.76381 4.16689C3.10303 3.34794 3.60023 2.60382 4.22703 1.97703C4.85382 1.35023 5.59794 0.853032 6.41689 0.513813C7.23583 0.174594 8.11358 0 9 0C9.88642 0 10.7642 0.174594 11.5831 0.513813C12.4021 0.853032 13.1462 1.35023 13.773 1.97703C14.3998 2.60382 14.897 3.34794 15.2362 4.16689C15.5754 4.98583 15.75 5.86358 15.75 6.75V13.5C15.75 14.2459 15.4537 14.9613 14.9262 15.4887C14.3988 16.0162 13.6834 16.3125 12.9375 16.3125H10.5367C10.438 16.4835 10.296 16.6255 10.125 16.7243C9.95397 16.823 9.75997 16.875 9.5625 16.875H8.4375C8.13913 16.875 7.85298 16.7565 7.642 16.5455C7.43103 16.3345 7.3125 16.0484 7.3125 15.75C7.3125 15.4516 7.43103 15.1655 7.642 14.9545C7.85298 14.7435 8.13913 14.625 8.4375 14.625H9.5625C9.75997 14.625 9.95397 14.677 10.125 14.7757C10.296 14.8745 10.438 15.0165 10.5367 15.1875H12.9375C13.3851 15.1875 13.8143 15.0097 14.1307 14.6932C14.4472 14.3768 14.625 13.9476 14.625 13.5H13.5C13.2016 13.5 12.9155 13.3815 12.7045 13.1705C12.4935 12.9595 12.375 12.6734 12.375 12.375V9C12.375 8.70163 12.4935 8.41548 12.7045 8.2045C12.9155 7.99353 13.2016 7.875 13.5 7.875H14.625V6.75C14.625 6.01131 14.4795 5.27986 14.1968 4.59741C13.9141 3.91495 13.4998 3.29485 12.9775 2.77252C12.4551 2.25019 11.8351 1.83586 11.1526 1.55318C10.4701 1.2705 9.73869 1.125 9 1.125Z" fill="#2B74DA"/>
  </g>
  <defs>
    <clipPath id="clip0_1692_6582">
      <rect width="18" height="18" fill="white"/>
    </clipPath>
  </defs>
</svg>