<svg xmlns="http://www.w3.org/2000/svg" width="24" height="27" viewBox="0 0 24 27" fill="none">
  <path d="M12.4956 26.8734L14.9705 25.5135C20.5339 22.4608 24 16.5388 24 10.1V3.60011C24 3.09698 23.6089 2.67544 23.1099 2.66184C17.2565 2.49866 13.6285 0.778494 12.435 0.112185C12.1652 -0.0373949 11.8348 -0.0373949 11.565 0.112185C10.3715 0.778494 6.73672 2.49866 0.890138 2.66184C0.391121 2.67544 0 3.09698 0 3.60011V10.1C0 16.5388 3.46614 22.454 9.0295 25.5067L11.5044 26.8666C11.8078 27.0433 12.1854 27.0433 12.4956 26.8734Z" fill="#516F90"/>
  <path d="M22.8127 4.36904V9.8831C22.8127 16.0227 19.5219 21.6455 14.2216 24.5487L12.4683 25.5142C12.3199 25.5958 12.1581 25.6366 11.9962 25.6366C11.8344 25.6366 11.6725 25.5958 11.5242 25.5142L9.77086 24.5487C4.4705 21.6387 1.17969 16.0227 1.17969 9.8831V4.36904C1.17969 4.11068 1.38199 3.89311 1.64499 3.87271C6.62841 3.53276 10.0541 2.20014 11.7872 1.34345C11.8546 1.30946 11.9288 1.28906 12.003 1.28906C12.0771 1.28906 12.1513 1.30266 12.2187 1.34345C13.9518 2.19334 17.3775 3.52596 22.3609 3.87271C22.6104 3.89311 22.8127 4.11068 22.8127 4.36904Z" fill="#F5F8FA"/>
  <path d="M22.8165 4.3681V9.88216C22.8165 16.0217 19.5257 21.6446 14.2253 24.5478L12.472 25.5132C12.3237 25.5948 12.1618 25.6356 12 25.6356V1.29492C12.0742 1.29492 12.1484 1.30852 12.2158 1.34931C13.9489 2.1992 17.3745 3.53182 22.358 3.87857C22.6142 3.89217 22.8165 4.10974 22.8165 4.3681Z" fill="#F5F8FA"/>
  <path d="M16.1094 11.2832H7.88232C7.39005 11.2832 6.99219 11.6843 6.99219 12.1807V18.7962C6.99219 19.2925 7.39005 19.6937 7.88232 19.6937H16.1094C16.6016 19.6937 16.9995 19.2925 16.9995 18.7962V12.1807C16.9995 11.6843 16.6016 11.2832 16.1094 11.2832ZM12.7916 15.9066V16.5661C12.7916 17.008 12.4342 17.3684 11.9958 17.3684C11.5575 17.3684 11.2001 17.008 11.2001 16.5661V15.9066C10.8629 15.6618 10.6471 15.2607 10.6471 14.8051C10.6471 14.0504 11.2541 13.4453 11.9958 13.4453C12.7376 13.4453 13.3445 14.0572 13.3445 14.8051C13.3445 15.2607 13.1287 15.6618 12.7916 15.9066Z" fill="#516F90"/>
  <path d="M14.9361 8.80715V9.84741C14.9361 10.201 14.6528 10.4865 14.3022 10.4865C13.9515 10.4865 13.6683 10.201 13.6683 9.84741V8.85475C13.6683 7.94367 12.967 7.16858 12.0633 7.13458C11.1125 7.10058 10.3303 7.86888 10.3303 8.81395V10.6497H9.0625V8.86155C9.0625 7.25017 10.3235 5.89715 11.9217 5.85635C12.7647 5.83596 13.5267 6.16911 14.0729 6.71984C14.6056 7.25017 14.9361 7.98447 14.9361 8.80715Z" fill="#516F90"/>
</svg>