<svg width="118" height="18" viewBox="0 0 118 18" fill="none" xmlns="http://www.w3.org/2000/svg">
<path d="M18.584 16V3.4H21.644V13.3H27.26V16H18.584ZM33.0392 16.18C31.9832 16.18 31.0652 15.97 30.2852 15.55C29.5052 15.118 28.8992 14.536 28.4672 13.804C28.0352 13.06 27.8192 12.214 27.8192 11.266C27.8192 10.534 27.9392 9.862 28.1792 9.25C28.4192 8.638 28.7552 8.11 29.1872 7.666C29.6192 7.21 30.1292 6.862 30.7172 6.622C31.3172 6.37 31.9712 6.244 32.6792 6.244C33.3512 6.244 33.9632 6.364 34.5152 6.604C35.0792 6.844 35.5652 7.18 35.9732 7.612C36.3812 8.044 36.6932 8.554 36.9092 9.142C37.1252 9.73 37.2212 10.372 37.1972 11.068L37.1792 11.842H29.5652L29.1512 10.222H34.8392L34.5332 10.564V10.204C34.5092 9.904 34.4132 9.64 34.2452 9.412C34.0892 9.172 33.8792 8.986 33.6152 8.854C33.3512 8.722 33.0512 8.656 32.7152 8.656C32.2472 8.656 31.8452 8.752 31.5092 8.944C31.1852 9.124 30.9392 9.394 30.7712 9.754C30.6032 10.102 30.5192 10.534 30.5192 11.05C30.5192 11.578 30.6272 12.04 30.8432 12.436C31.0712 12.82 31.3952 13.12 31.8152 13.336C32.2472 13.552 32.7572 13.66 33.3452 13.66C33.7532 13.66 34.1132 13.6 34.4252 13.48C34.7492 13.36 35.0972 13.156 35.4692 12.868L36.8192 14.776C36.4472 15.1 36.0512 15.364 35.6312 15.568C35.2112 15.772 34.7792 15.922 34.3352 16.018C33.9032 16.126 33.4712 16.18 33.0392 16.18ZM42.1501 16.162C41.3461 16.162 40.6261 15.952 39.9901 15.532C39.3661 15.1 38.8681 14.512 38.4961 13.768C38.1241 13.012 37.9381 12.16 37.9381 11.212C37.9381 10.24 38.1241 9.382 38.4961 8.638C38.8681 7.894 39.3781 7.312 40.0261 6.892C40.6741 6.46 41.4121 6.244 42.2401 6.244C42.6961 6.244 43.1101 6.31 43.4821 6.442C43.8661 6.574 44.2021 6.76 44.4901 7C44.7781 7.228 45.0241 7.498 45.2281 7.81C45.4321 8.11 45.5821 8.434 45.6781 8.782L45.0841 8.71V6.442H47.9461V16H45.0301V13.696L45.6781 13.678C45.5821 14.014 45.4261 14.332 45.2101 14.632C44.9941 14.932 44.7301 15.196 44.4181 15.424C44.1061 15.652 43.7581 15.832 43.3741 15.964C42.9901 16.096 42.5821 16.162 42.1501 16.162ZM42.9421 13.732C43.3861 13.732 43.7701 13.63 44.0941 13.426C44.4181 13.222 44.6701 12.934 44.8501 12.562C45.0301 12.178 45.1201 11.728 45.1201 11.212C45.1201 10.696 45.0301 10.252 44.8501 9.88C44.6701 9.496 44.4181 9.202 44.0941 8.998C43.7701 8.782 43.3861 8.674 42.9421 8.674C42.5101 8.674 42.1321 8.782 41.8081 8.998C41.4961 9.202 41.2501 9.496 41.0701 9.88C40.8901 10.252 40.8001 10.696 40.8001 11.212C40.8001 11.728 40.8901 12.178 41.0701 12.562C41.2501 12.934 41.4961 13.222 41.8081 13.426C42.1321 13.63 42.5101 13.732 42.9421 13.732ZM53.6953 16.198C52.8673 16.198 52.1293 15.988 51.4813 15.568C50.8453 15.136 50.3413 14.548 49.9693 13.804C49.5973 13.048 49.4113 12.19 49.4113 11.23C49.4113 10.27 49.5973 9.418 49.9693 8.674C50.3413 7.918 50.8513 7.324 51.4993 6.892C52.1473 6.46 52.8913 6.244 53.7313 6.244C54.1633 6.244 54.5773 6.31 54.9733 6.442C55.3693 6.574 55.7293 6.754 56.0533 6.982C56.3773 7.21 56.6413 7.474 56.8453 7.774C57.0493 8.062 57.1693 8.362 57.2053 8.674L56.5213 8.836V2.68H59.4193V16H56.7373L56.5753 13.822L57.1513 13.912C57.1153 14.212 56.9953 14.5 56.7913 14.776C56.5993 15.052 56.3473 15.298 56.0353 15.514C55.7233 15.718 55.3633 15.88 54.9553 16C54.5593 16.132 54.1393 16.198 53.6953 16.198ZM54.4333 13.804C54.8773 13.804 55.2613 13.696 55.5853 13.48C55.9093 13.264 56.1553 12.964 56.3233 12.58C56.5033 12.196 56.5933 11.746 56.5933 11.23C56.5933 10.702 56.5033 10.246 56.3233 9.862C56.1553 9.478 55.9093 9.178 55.5853 8.962C55.2613 8.746 54.8773 8.638 54.4333 8.638C53.9893 8.638 53.6053 8.746 53.2813 8.962C52.9693 9.178 52.7233 9.478 52.5433 9.862C52.3633 10.246 52.2733 10.702 52.2733 11.23C52.2733 11.746 52.3633 12.196 52.5433 12.58C52.7233 12.964 52.9693 13.264 53.2813 13.48C53.6053 13.696 53.9893 13.804 54.4333 13.804Z" fill="#F8951E"/>
<path d="M61.7506 16V3.4H67.1866C67.9786 3.4 68.6806 3.58 69.2926 3.94C69.9166 4.3 70.4086 4.792 70.7686 5.416C71.1406 6.04 71.3266 6.742 71.3266 7.522C71.3266 8.338 71.1406 9.07 70.7686 9.718C70.4086 10.354 69.9166 10.858 69.2926 11.23C68.6806 11.602 67.9786 11.788 67.1866 11.788H64.8106V16H61.7506ZM64.7566 9.106H66.7546C67.0186 9.106 67.2586 9.04 67.4746 8.908C67.6906 8.776 67.8646 8.596 67.9966 8.368C68.1286 8.14 68.1946 7.876 68.1946 7.576C68.1946 7.264 68.1286 7 67.9966 6.784C67.8646 6.568 67.6906 6.4 67.4746 6.28C67.2586 6.16 67.0186 6.1 66.7546 6.1H64.7566V9.106ZM72.9706 16V2.68H75.8506V16H72.9706ZM81.3616 16.162C80.5576 16.162 79.8376 15.952 79.2016 15.532C78.5776 15.1 78.0796 14.512 77.7076 13.768C77.3356 13.012 77.1496 12.16 77.1496 11.212C77.1496 10.24 77.3356 9.382 77.7076 8.638C78.0796 7.894 78.5896 7.312 79.2376 6.892C79.8856 6.46 80.6236 6.244 81.4516 6.244C81.9076 6.244 82.3216 6.31 82.6936 6.442C83.0776 6.574 83.4136 6.76 83.7016 7C83.9896 7.228 84.2356 7.498 84.4396 7.81C84.6436 8.11 84.7936 8.434 84.8896 8.782L84.2956 8.71V6.442H87.1576V16H84.2416V13.696L84.8896 13.678C84.7936 14.014 84.6376 14.332 84.4216 14.632C84.2056 14.932 83.9416 15.196 83.6296 15.424C83.3176 15.652 82.9696 15.832 82.5856 15.964C82.2016 16.096 81.7936 16.162 81.3616 16.162ZM82.1536 13.732C82.5976 13.732 82.9816 13.63 83.3056 13.426C83.6296 13.222 83.8816 12.934 84.0616 12.562C84.2416 12.178 84.3316 11.728 84.3316 11.212C84.3316 10.696 84.2416 10.252 84.0616 9.88C83.8816 9.496 83.6296 9.202 83.3056 8.998C82.9816 8.782 82.5976 8.674 82.1536 8.674C81.7216 8.674 81.3436 8.782 81.0196 8.998C80.7076 9.202 80.4616 9.496 80.2816 9.88C80.1016 10.252 80.0116 10.696 80.0116 11.212C80.0116 11.728 80.1016 12.178 80.2816 12.562C80.4616 12.934 80.7076 13.222 81.0196 13.426C81.3436 13.63 81.7216 13.732 82.1536 13.732ZM89.2889 16V6.442H92.0249L92.1149 8.386L91.5389 8.602C91.6709 8.17 91.9049 7.78 92.2409 7.432C92.5889 7.072 93.0029 6.784 93.4829 6.568C93.9629 6.352 94.4669 6.244 94.9949 6.244C95.7149 6.244 96.3209 6.394 96.8129 6.694C97.3049 6.982 97.6769 7.42 97.9289 8.008C98.1809 8.584 98.3069 9.292 98.3069 10.132V16H95.4089V10.366C95.4089 9.982 95.3549 9.664 95.2469 9.412C95.1389 9.16 94.9709 8.974 94.7429 8.854C94.5269 8.722 94.2569 8.662 93.9329 8.674C93.6809 8.674 93.4469 8.716 93.2309 8.8C93.0149 8.872 92.8289 8.986 92.6729 9.142C92.5169 9.286 92.3909 9.454 92.2949 9.646C92.2109 9.838 92.1689 10.048 92.1689 10.276V16H90.7469C90.4109 16 90.1229 16 89.8829 16C89.6429 16 89.4449 16 89.2889 16ZM104.859 16.18C103.803 16.18 102.885 15.97 102.105 15.55C101.325 15.118 100.719 14.536 100.287 13.804C99.8546 13.06 99.6386 12.214 99.6386 11.266C99.6386 10.534 99.7586 9.862 99.9986 9.25C100.239 8.638 100.575 8.11 101.007 7.666C101.439 7.21 101.949 6.862 102.537 6.622C103.137 6.37 103.791 6.244 104.499 6.244C105.171 6.244 105.783 6.364 106.335 6.604C106.899 6.844 107.385 7.18 107.793 7.612C108.201 8.044 108.513 8.554 108.729 9.142C108.945 9.73 109.041 10.372 109.017 11.068L108.999 11.842H101.385L100.971 10.222H106.659L106.353 10.564V10.204C106.329 9.904 106.233 9.64 106.065 9.412C105.909 9.172 105.699 8.986 105.435 8.854C105.171 8.722 104.871 8.656 104.535 8.656C104.067 8.656 103.665 8.752 103.329 8.944C103.005 9.124 102.759 9.394 102.591 9.754C102.423 10.102 102.339 10.534 102.339 11.05C102.339 11.578 102.447 12.04 102.663 12.436C102.891 12.82 103.215 13.12 103.635 13.336C104.067 13.552 104.577 13.66 105.165 13.66C105.573 13.66 105.933 13.6 106.245 13.48C106.569 13.36 106.917 13.156 107.289 12.868L108.639 14.776C108.267 15.1 107.871 15.364 107.451 15.568C107.031 15.772 106.599 15.922 106.155 16.018C105.723 16.126 105.291 16.18 104.859 16.18ZM110.442 16V6.442H113.178L113.304 9.556L112.764 8.962C112.908 8.446 113.142 7.984 113.466 7.576C113.802 7.168 114.192 6.844 114.636 6.604C115.08 6.364 115.554 6.244 116.058 6.244C116.274 6.244 116.472 6.262 116.652 6.298C116.844 6.334 117.018 6.376 117.174 6.424L116.382 9.61C116.25 9.526 116.07 9.46 115.842 9.412C115.626 9.352 115.398 9.322 115.158 9.322C114.894 9.322 114.648 9.37 114.42 9.466C114.192 9.55 114 9.676 113.844 9.844C113.688 10.012 113.562 10.21 113.466 10.438C113.382 10.666 113.34 10.924 113.34 11.212V16H110.442Z" fill="#1F2228"/>
<path d="M0.000291618 8.9127C7.96966e-05 6.42516 -0.000294411 0.966282 0.000405204 0C2.14658 -1.36513e-05 2.59146 2.29623 2.59146 2.29623V7.77947C2.59146 9.15902 2.49125 10.7581 3.56407 11.6254C4.48509 12.37 5.70072 12.37 5.70072 12.37V15.0366C2.21301 14.6004 0.84895 12.6419 0.322658 11.3401C0.0132749 10.5748 0.000361943 9.73816 0.000291618 8.9127Z" fill="#F8951E"/>
<path d="M6.15159 14.9631C7.04007 14.9631 7.91688 14.7606 8.71543 14.3709C9.51399 13.9811 10.2133 13.4145 10.7603 12.7139C11.3073 12.0134 11.6875 11.1974 11.8722 10.3278C12.0569 9.45823 12.0411 8.55799 11.8261 7.69543C11.6111 6.83286 11.2026 6.03065 10.6314 5.34969C10.0602 4.66874 9.34152 4.12694 8.52982 3.76544C7.71811 3.40393 6.83476 3.23223 5.94682 3.26335C5.05888 3.29448 4.1897 3.52762 3.40527 3.94508V7.40779C3.80552 7.19479 4.30086 6.18874 6.04711 6.12753C6.50017 6.11165 6.95089 6.19926 7.36505 6.38371C7.77921 6.56816 8.14593 6.84461 8.43736 7.19206C8.72879 7.53951 8.93726 7.94883 9.04697 8.38894C9.15667 8.82905 9.16471 9.28839 9.07047 9.73207C8.97624 10.1758 8.78221 10.5921 8.50312 10.9496C8.22403 11.307 7.88438 11.7273 7.47692 11.9262C7.06947 12.125 6.60493 12.3706 6.15159 12.3706V14.9631Z" fill="#1F2228"/>
<path d="M0.148466 17.9997C0.148466 17.9997 0.148417 12.2221 0.148603 11.9258C1.48111 14.3702 2.81355 14.3702 2.81355 14.3702V15.9257C2.66549 17.7034 0.148466 17.9997 0.148466 17.9997Z" fill="#1F2228"/>
</svg>
