<svg xmlns="http://www.w3.org/2000/svg" width="12" height="12" viewBox="0 0 12 12" fill="none">
  <path d="M4.5793 5.435C4.5293 5.43 4.4693 5.43 4.4143 5.435C3.2243 5.395 2.2793 4.42 2.2793 3.22C2.2793 1.995 3.2693 1 4.4993 1C5.7243 1 6.7193 1.995 6.7193 3.22C6.7143 4.42 5.7693 5.395 4.5793 5.435Z" stroke="#2B74DA" stroke-linecap="round" stroke-linejoin="round"/>
  <path d="M8.20562 2C9.17562 2 9.95563 2.785 9.95563 3.75C9.95563 4.695 9.20563 5.465 8.27063 5.5C8.23063 5.495 8.18563 5.495 8.14062 5.5" stroke="#2B74DA" stroke-linecap="round" stroke-linejoin="round"/>
  <path d="M2.07938 7.28C0.869375 8.09 0.869375 9.41 2.07938 10.215C3.45438 11.135 5.70938 11.135 7.08438 10.215C8.29438 9.405 8.29438 8.085 7.08438 7.28C5.71438 6.365 3.45938 6.365 2.07938 7.28Z" stroke="#2B74DA" stroke-linecap="round" stroke-linejoin="round"/>
  <path d="M9.16992 10C9.52992 9.925 9.86992 9.78 10.1499 9.565C10.9299 8.98 10.9299 8.015 10.1499 7.43C9.87492 7.22 9.53992 7.08 9.18492 7" stroke="#2B74DA" stroke-linecap="round" stroke-linejoin="round"/>
</svg>