<svg width="14" height="14" viewBox="0 0 14 14" fill="none" xmlns="http://www.w3.org/2000/svg">
<g id="vuesax/linear/more">
<g id="more">
<path id="Vector" d="M2.91667 5.83398C2.275 5.83398 1.75 6.35898 1.75 7.00065C1.75 7.64232 2.275 8.16732 2.91667 8.16732C3.55833 8.16732 4.08333 7.64232 4.08333 7.00065C4.08333 6.35898 3.55833 5.83398 2.91667 5.83398Z" fill="#1E2224"/>
<path id="Vector_2" d="M11.0827 5.83398C10.441 5.83398 9.91602 6.35898 9.91602 7.00065C9.91602 7.64232 10.441 8.16732 11.0827 8.16732C11.7243 8.16732 12.2493 7.64232 12.2493 7.00065C12.2493 6.35898 11.7243 5.83398 11.0827 5.83398Z" fill="#1E2224"/>
<path id="Vector_3" d="M7.00065 5.83398C6.35898 5.83398 5.83398 6.35898 5.83398 7.00065C5.83398 7.64232 6.35898 8.16732 7.00065 8.16732C7.64232 8.16732 8.16732 7.64232 8.16732 7.00065C8.16732 6.35898 7.64232 5.83398 7.00065 5.83398Z" fill="#1E2224"/>
</g>
</g>
</svg>
