<svg xmlns="http://www.w3.org/2000/svg" width="18" height="18" viewBox="0 0 18 18" fill="none">
  <path d="M15.7592 15.8631C16.9955 15.8631 18 14.8586 18 13.6223V4.37947C18 3.14317 16.9955 2.13867 15.7592 2.13867H2.2408C1.0045 2.13867 0 3.14317 0 4.37947V13.6186C0 14.8549 1.0045 15.8594 2.2408 15.8594H15.7592V15.8631ZM2.29231 5.25887C2.06051 5.06018 2.03107 4.71431 2.22976 4.4825C2.42845 4.25069 2.77433 4.22126 3.00613 4.41995L9 9.50498L14.9975 4.41627C15.2294 4.21758 15.5789 4.24701 15.7739 4.47882C15.9726 4.71063 15.9432 5.06018 15.7114 5.25519L11.4321 8.89051L15.7334 12.9379C15.9542 13.1477 15.9653 13.4972 15.7555 13.718C15.6451 13.832 15.5016 13.8909 15.3545 13.8909C15.2183 13.8909 15.0822 13.8394 14.9755 13.7401L10.5859 9.61169L9.36059 10.653C9.25756 10.7413 9.12878 10.7854 9.00368 10.7854C8.8749 10.7854 8.7498 10.7413 8.64677 10.653L7.41783 9.61169L3.02821 13.7437C2.9215 13.8431 2.78536 13.8946 2.64922 13.8946C2.50204 13.8946 2.35487 13.8357 2.24816 13.7217C2.03843 13.5009 2.04947 13.1513 2.27024 12.9416L6.57155 8.89051L2.29231 5.25887Z" fill="white"/>
</svg>