<svg width="11" height="11" viewBox="0 0 11 11" fill="none" xmlns="http://www.w3.org/2000/svg">
<g id="_x31_6-thumbtack">
<path id="Vector" d="M10.675 3.98125L6.825 0.13125C6.65 -0.04375 6.3875 -0.04375 6.2125 0.13125L4.8125 1.53125C4.59375 1.75 4.68125 2.0125 4.8125 2.14375L5.11875 2.45L3.80625 3.7625C3.15 3.63125 1.35625 3.325 0.39375 4.2875C0.21875 4.4625 0.21875 4.725 0.39375 4.9L2.8875 7.39375L0.13125 10.15C-0.04375 10.325 -0.04375 10.5875 0.13125 10.7625C0.30625 10.9375 0.6125 10.8938 0.74375 10.7625L3.5 8.00625L5.99375 10.5C6.25625 10.7188 6.51875 10.6313 6.60625 10.5C7.56875 9.5375 7.2625 7.74375 7.13125 7.0875L8.44375 5.775L8.75 6.08125C8.925 6.25625 9.1875 6.25625 9.3625 6.08125L10.7625 4.68125C10.85 4.41875 10.85 4.15625 10.675 3.98125Z" fill="#1E2224"/>
</g>
</svg>
