<svg xmlns="http://www.w3.org/2000/svg" width="16" height="16" viewBox="0 0 16 16" fill="none">
  <path d="M10.6667 11.9993H2.66667C2.26667 11.9993 2 11.7327 2 11.3327C2 10.9327 2.26667 10.666 2.66667 10.666H10.6667C11.0667 10.666 11.3333 10.9327 11.3333 11.3327C11.3333 11.7327 11.0667 11.9993 10.6667 11.9993Z" fill="black"/>
  <path d="M8.66667 8.66732H2.66667C2.26667 8.66732 2 8.40065 2 8.00065C2 7.60065 2.26667 7.33398 2.66667 7.33398H8.66667C9.06667 7.33398 9.33333 7.60065 9.33333 8.00065C9.33333 8.40065 9.06667 8.66732 8.66667 8.66732Z" fill="black"/>
  <path d="M6.66667 5.33333H2.66667C2.26667 5.33333 2 5.06667 2 4.66667C2 4.26667 2.26667 4 2.66667 4H6.66667C7.06667 4 7.33333 4.26667 7.33333 4.66667C7.33333 5.06667 7.06667 5.33333 6.66667 5.33333Z" fill="black"/>
  <path d="M11.9997 2.66732C11.5997 2.66732 11.333 2.93398 11.333 3.33398V8.66732C11.333 9.06732 11.5997 9.33398 11.9997 9.33398C12.3997 9.33398 12.6663 9.06732 12.6663 8.66732V3.33398C12.6663 2.93398 12.3997 2.66732 11.9997 2.66732Z" fill="black"/>
  <path d="M13.9997 6.00065C13.7997 6.00065 13.6663 6.06732 13.533 6.20065L11.9997 7.73398L10.4663 6.20065C10.1997 5.93398 9.79967 5.93398 9.53301 6.20065C9.26634 6.46732 9.26634 6.86732 9.53301 7.13398L11.533 9.13398C11.7997 9.40065 12.1997 9.40065 12.4663 9.13398L14.4663 7.13398C14.733 6.86732 14.733 6.46732 14.4663 6.20065C14.333 6.06732 14.1997 6.00065 13.9997 6.00065Z" fill="black"/>
</svg>