<svg xmlns="http://www.w3.org/2000/svg" width="17" height="16" viewBox="0 0 17 16" fill="none">
  <path d="M11.8211 0H9.49626L5.51172 3H7.8365L11.8211 0Z" fill="#D83C38"/>
  <path d="M15.8385 0H13.4806L9.49609 3H11.8209L15.8385 0Z" fill="#D83C38"/>
  <path d="M13.4805 3.00006H17.0003V0.500057C17.0003 0.461491 16.9867 0.427424 16.9785 0.391357L13.4805 3.00006Z" fill="#D83C38"/>
  <path d="M1.49414 3H3.85213L7.8367 0H5.51188L1.49414 3Z" fill="#D83C38"/>
  <path d="M0 15.5C0 15.7764 0.22276 16 0.498047 16H16.502C16.7772 16 17 15.7764 17 15.5V4H0V15.5ZM6.00977 6.5C6.00977 6.31983 6.10605 6.1538 6.26221 6.06493C6.41836 5.97607 6.60998 5.9785 6.76414 6.07127L11.7446 9.07127C11.8944 9.1616 11.9863 9.3242 11.9863 9.49997C11.9863 9.67573 11.8944 9.83833 11.7446 9.92867L6.76414 12.9287C6.60988 13.0214 6.4182 13.0238 6.26221 12.935C6.10605 12.8462 6.00977 12.6802 6.00977 12.5V6.5Z" fill="#D83C38"/>
  <path d="M0.498047 0C0.22276 0 0 0.223633 0 0.5V2.87523L3.85209 0H0.498047Z" fill="#D83C38"/>
  <path d="M7.00586 7.3833V11.6167L10.5204 9.5L7.00586 7.3833Z" fill="#D83C38"/>
</svg>