<svg width="16" height="16" viewBox="0 0 16 16" fill="none" xmlns="http://www.w3.org/2000/svg">
<path d="M14.6468 12.22C14.6468 12.46 14.5935 12.7067 14.4802 12.9467C14.3668 13.1867 14.2202 13.4133 14.0268 13.6267C13.7002 13.9867 13.3402 14.2467 12.9335 14.4133C12.5335 14.58 12.1002 14.6667 11.6335 14.6667C10.9535 14.6667 10.2268 14.5067 9.46016 14.18C8.6935 13.8533 7.92683 13.4133 7.16683 12.86C6.40016 12.3 5.6735 11.68 4.98016 10.9933C4.2935 10.3 3.6735 9.57333 3.12016 8.81333C2.5735 8.05333 2.1335 7.29333 1.8135 6.53999C1.4935 5.77999 1.3335 5.05333 1.3335 4.35999C1.3335 3.90666 1.4135 3.47333 1.5735 3.07333C1.7335 2.66666 1.98683 2.29333 2.34016 1.95999C2.76683 1.53999 3.2335 1.33333 3.72683 1.33333C3.9135 1.33333 4.10016 1.37333 4.26683 1.45333C4.44016 1.53333 4.5935 1.65333 4.7135 1.82666L6.26016 4.00666C6.38016 4.17333 6.46683 4.32666 6.52683 4.47333C6.58683 4.61333 6.62016 4.75333 6.62016 4.87999C6.62016 5.03999 6.5735 5.19999 6.48016 5.35333C6.3935 5.50666 6.26683 5.66666 6.10683 5.82666L5.60016 6.35333C5.52683 6.42666 5.4935 6.51333 5.4935 6.61999C5.4935 6.67333 5.50016 6.71999 5.5135 6.77333C5.5335 6.82666 5.5535 6.86666 5.56683 6.90666C5.68683 7.12666 5.8935 7.41333 6.18683 7.75999C6.48683 8.10666 6.80683 8.45999 7.1535 8.81333C7.5135 9.16666 7.86016 9.49333 8.2135 9.79333C8.56016 10.0867 8.84683 10.2867 9.0735 10.4067C9.10683 10.42 9.14683 10.44 9.1935 10.46C9.24683 10.48 9.30016 10.4867 9.36016 10.4867C9.4735 10.4867 9.56016 10.4467 9.6335 10.3733L10.1402 9.87333C10.3068 9.70666 10.4668 9.57999 10.6202 9.49999C10.7735 9.40666 10.9268 9.35999 11.0935 9.35999C11.2202 9.35999 11.3535 9.38666 11.5002 9.44666C11.6468 9.50666 11.8002 9.59333 11.9668 9.70666L14.1735 11.2733C14.3468 11.3933 14.4668 11.5333 14.5402 11.7C14.6068 11.8667 14.6468 12.0333 14.6468 12.22Z" stroke="#818181" stroke-width="1.5" stroke-miterlimit="10"/>
</svg>
