<svg xmlns="http://www.w3.org/2000/svg" width="18" height="12" viewBox="0 0 18 12" fill="none">
  <path fill-rule="evenodd" clip-rule="evenodd" d="M7.71428 0C5.23662 0 3.21428 1.98684 3.21428 4.42101C3.21428 4.42269 3.21428 4.42438 3.21428 4.42606C3.21467 4.46654 3.22407 4.50649 3.22558 4.54695C1.41327 4.85517 -6.42857e-07 6.345 0 8.21056C-6.42857e-07 10.2959 1.73452 12 3.85714 12H14.7857C16.5533 12 18 10.5787 18 8.84214C18 7.32349 16.8721 6.10557 15.4122 5.80886C15.4141 5.76812 15.4283 5.7288 15.4286 5.68797C15.4286 5.68755 15.4286 5.68714 15.4286 5.68672C15.4286 5.6863 15.4286 5.68587 15.4286 5.68545C15.4286 5.68503 15.4286 5.68462 15.4286 5.68419C15.4286 3.94765 13.9819 2.52634 12.2143 2.52633C12.2126 2.52632 12.2109 2.52632 12.2093 2.52633C12.0545 2.52759 11.9073 2.57875 11.7548 2.60158C11.0283 1.05175 9.48496 0.000107367 7.71428 0ZM7.71428 1.26315C9.12409 1.26323 10.3639 2.15981 10.7829 3.48229C10.8085 3.56291 10.8503 3.63769 10.9058 3.70218C10.9613 3.76667 11.0294 3.81956 11.1061 3.85774C11.1827 3.89593 11.2664 3.91862 11.3522 3.92447C11.4379 3.93032 11.524 3.91922 11.6053 3.89182C11.8015 3.82563 12.0081 3.79125 12.2155 3.78944C13.2873 3.79007 14.1422 4.63001 14.1429 5.68292C14.1414 5.84323 14.1199 6.003 14.0776 6.15784C14.0507 6.25603 14.0483 6.35916 14.0707 6.45843C14.0931 6.55771 14.1395 6.65021 14.2061 6.72808C14.2727 6.80594 14.3574 6.86688 14.453 6.90569C14.5487 6.9445 14.6525 6.96004 14.7556 6.951C14.7663 6.94974 14.7774 6.94911 14.7882 6.94848C15.8595 6.95037 16.7143 7.78906 16.7143 8.84196C16.7143 9.89587 15.8584 10.7367 14.7857 10.7367H3.85714C2.42937 10.7367 1.28571 9.6131 1.28571 8.21039C1.28571 6.80768 2.42937 5.6841 3.85714 5.6841C3.87067 5.6843 3.88379 5.68369 3.89732 5.6841C3.99298 5.68703 4.0881 5.66894 4.17574 5.63115C4.26338 5.59336 4.34133 5.53682 4.40389 5.46566C4.46646 5.39451 4.51206 5.31052 4.53738 5.21984C4.56269 5.12916 4.56708 5.03407 4.55022 4.94151C4.51886 4.76944 4.50199 4.59574 4.49999 4.42095V4.41843C4.50134 2.66808 5.93233 1.26315 7.71428 1.26315Z" fill="#2B74DA"/>
</svg>