<svg width="12" height="12" viewBox="0 0 12 12" fill="none" xmlns="http://www.w3.org/2000/svg">
<g id="vuesax/bold/copy">
<g id="copy">
<path id="Vector" d="M4 6.45V8.55C4 10.3 4.7 11 6.45 11H8.55C10.3 11 11 10.3 11 8.55V6.45C11 4.7 10.3 4 8.55 4H6.45C4.7 4 4 4.7 4 6.45Z" fill="#2B74DA"/>
<path id="Vector_2" d="M3.44914 1H5.54914C6.88132 1 7.60217 1.40854 7.87061 2.37301C8.01994 2.90953 7.53915 3.375 6.98224 3.375H6.44914C4.34914 3.375 3.37414 4.35 3.37414 6.45V6.9831C3.37414 7.54001 2.90867 8.0208 2.37215 7.87147C1.40768 7.60303 0.99914 6.88218 0.99914 5.55V3.45C0.99914 1.7 1.69914 1 3.44914 1Z" fill="#2B74DA"/>
</g>
</g>
</svg>
