<svg xmlns="http://www.w3.org/2000/svg" width="16" height="14" viewBox="0 0 16 14" fill="none">
  <path d="M15.6082 0.458167C15.3472 0.197081 15.0334 0.0664062 14.6666 0.0664062H1.33333C0.966675 0.0664062 0.652875 0.197081 0.391614 0.458167C0.130499 0.71934 0 1.03311 0 1.3998V10.4665C0 10.8333 0.130499 11.147 0.391614 11.4083C0.652875 11.6694 0.966675 11.7998 1.33333 11.7998H5.86674C5.86674 12.0109 5.82226 12.2277 5.73335 12.4498C5.64451 12.672 5.5556 12.8664 5.46669 13.033C5.3779 13.1998 5.33345 13.3219 5.33345 13.3996C5.33345 13.544 5.38619 13.6693 5.49177 13.7746C5.59728 13.8803 5.72229 13.9332 5.86674 13.9332H10.1334C10.2779 13.9332 10.4029 13.8803 10.5084 13.7746C10.6141 13.6693 10.6668 13.544 10.6668 13.3996C10.6668 13.3276 10.6223 13.2066 10.5334 13.0372C10.4445 12.8679 10.3556 12.6705 10.2668 12.4457C10.1779 12.2206 10.1334 12.0054 10.1334 11.7998H14.6668C15.0334 11.7998 15.3472 11.6694 15.6083 11.4083C15.8695 11.1471 16 10.8333 16 10.4665V1.3998C16.0001 1.03311 15.8694 0.71934 15.6082 0.458167ZM14.9333 8.33315C14.9333 8.4054 14.907 8.4678 14.8542 8.52066C14.8014 8.57331 14.7388 8.59967 14.6666 8.59967H1.33333C1.26115 8.59967 1.19863 8.57331 1.14586 8.52066C1.09312 8.46762 1.0667 8.4054 1.0667 8.33315V1.3998C1.0667 1.32756 1.09303 1.2651 1.14586 1.21232C1.19866 1.15964 1.26118 1.13317 1.33333 1.13317H14.6668C14.7389 1.13317 14.8016 1.15955 14.8542 1.21232C14.907 1.26513 14.9333 1.32759 14.9333 1.3998V8.33315Z" fill="#1E2224"/>
</svg>