<svg width="16" height="16" viewBox="0 0 16 16" fill="none" xmlns="http://www.w3.org/2000/svg">
<path d="M5.78125 9.55323C5.78125 10.4132 6.44125 11.1066 7.26125 11.1066H8.93458C9.64792 11.1066 10.2279 10.4999 10.2279 9.75323C10.2279 8.93989 9.87458 8.65323 9.34792 8.46656L6.66125 7.53323C6.13458 7.34656 5.78125 7.05989 5.78125 6.24656C5.78125 5.49989 6.36125 4.89323 7.07458 4.89323H8.74792C9.56792 4.89323 10.2279 5.58656 10.2279 6.44656" stroke="#292D32" stroke-linecap="round" stroke-linejoin="round"/>
<path d="M8 4V12" stroke="#292D32" stroke-linecap="round" stroke-linejoin="round"/>
<path d="M10.0002 14.6667H6.00016C2.66683 14.6667 1.3335 13.3333 1.3335 10V6C1.3335 2.66667 2.66683 1.33334 6.00016 1.33334H10.0002C13.3335 1.33334 14.6668 2.66667 14.6668 6V10C14.6668 13.3333 13.3335 14.6667 10.0002 14.6667Z" stroke="#292D32" stroke-linecap="round" stroke-linejoin="round"/>
</svg>
