<svg xmlns="http://www.w3.org/2000/svg" width="29" height="29" viewBox="0 0 29 29" fill="none">
  <circle cx="14.5" cy="14.5" r="14.5" fill="#2B74DA"/>
  <path d="M18.5265 20H10.4721C10.0817 20 9.70725 19.8449 9.43117 19.5688C9.1551 19.2927 9 18.9182 9 18.5277V10.4723C9 10.0818 9.1551 9.70734 9.43117 9.43123C9.70725 9.15512 10.0817 9 10.4721 9H18.5265C18.9169 9 19.2914 9.15512 19.5674 9.43123C19.8435 9.70734 19.9986 10.0818 19.9986 10.4723V18.5277C19.9986 18.9182 19.8435 19.2927 19.5674 19.5688C19.2914 19.8449 18.9169 20 18.5265 20ZM10.4721 9.84615C10.3061 9.84615 10.1468 9.91212 10.0294 10.0296C9.91201 10.147 9.84605 10.3062 9.84605 10.4723V18.5277C9.84605 18.6938 9.91201 18.853 10.0294 18.9705C10.1468 19.0879 10.3061 19.1538 10.4721 19.1538H18.5265C18.6925 19.1538 18.8518 19.0879 18.9692 18.9705C19.0866 18.853 19.1526 18.6938 19.1526 18.5277V10.4723C19.1526 10.3062 19.0866 10.147 18.9692 10.0296C18.8518 9.91212 18.6925 9.84615 18.5265 9.84615H10.4721Z" fill="white"/>
  <path d="M9.42198 18.3402C9.36105 18.34 9.30085 18.3268 9.24542 18.3015C9.18998 18.2762 9.14057 18.2394 9.10048 18.1935C9.0644 18.151 9.03708 18.1017 9.0201 18.0486C9.00311 17.9955 8.9968 17.9395 9.00152 17.884C9.00623 17.8284 9.02189 17.7743 9.04759 17.7248C9.07328 17.6753 9.10851 17.6314 9.15124 17.5955L12.0391 15.1586C12.2547 14.9766 12.5307 14.882 12.8126 14.8935C13.0945 14.905 13.3619 15.0217 13.562 15.2207L14.9326 16.5914C14.9836 16.6351 15.0487 16.6591 15.1159 16.6591C15.1831 16.6591 15.2481 16.6351 15.2992 16.5914L16.6303 15.6268C16.8275 15.475 17.0695 15.3926 17.3184 15.3926C17.5673 15.3926 17.8093 15.475 18.0065 15.6268L19.8396 17.0878C19.8833 17.1227 19.9198 17.1657 19.9468 17.2146C19.9739 17.2635 19.991 17.3173 19.9973 17.3728C20.0036 17.4283 19.9989 17.4845 19.9834 17.5382C19.968 17.592 19.9421 17.6421 19.9073 17.6858C19.8725 17.7295 19.8294 17.7659 19.7805 17.793C19.7317 17.82 19.6779 17.8372 19.6224 17.8435C19.5669 17.8498 19.5107 17.8451 19.457 17.8296C19.4033 17.8142 19.3531 17.7883 19.3094 17.7535L17.482 16.2868C17.4327 16.2489 17.3722 16.2283 17.31 16.2283C17.2477 16.2283 17.1872 16.2489 17.1379 16.2868L15.8068 17.3191C15.5901 17.4818 15.3222 17.5611 15.0518 17.5425C14.7815 17.5238 14.527 17.4085 14.3347 17.2176L12.9641 15.8186C12.9123 15.7718 12.8449 15.7459 12.7751 15.7459C12.7053 15.7459 12.638 15.7718 12.5862 15.8186L9.69271 18.2443C9.61716 18.3081 9.52089 18.3422 9.42198 18.3402Z" fill="white"/>
  <path d="M16.1995 14.3604C15.8927 14.3604 15.5929 14.2694 15.3378 14.0989C15.0827 13.9285 14.8839 13.6862 14.7665 13.4027C14.6491 13.1193 14.6184 12.8074 14.6782 12.5065C14.7381 12.2055 14.8858 11.9291 15.1027 11.7122C15.3197 11.4952 15.596 11.3475 15.8969 11.2876C16.1978 11.2278 16.5097 11.2585 16.7931 11.3759C17.0765 11.4933 17.3188 11.6921 17.4892 11.9472C17.6596 12.2024 17.7506 12.5023 17.7506 12.8091C17.7506 13.2205 17.5872 13.6151 17.2963 13.906C17.0054 14.1969 16.6109 14.3604 16.1995 14.3604ZM16.1995 12.104C16.0601 12.104 15.9238 12.1453 15.8078 12.2228C15.6919 12.3003 15.6015 12.4104 15.5482 12.5393C15.4948 12.6681 15.4808 12.8099 15.508 12.9467C15.5352 13.0834 15.6024 13.2091 15.701 13.3077C15.7996 13.4063 15.9252 13.4735 16.062 13.5007C16.1987 13.5279 16.3405 13.5139 16.4693 13.4605C16.5982 13.4072 16.7083 13.3168 16.7857 13.2008C16.8632 13.0849 16.9046 12.9486 16.9046 12.8091C16.9046 12.6221 16.8303 12.4427 16.6981 12.3105C16.5658 12.1783 16.3865 12.104 16.1995 12.104Z" fill="white"/>
</svg>