<svg width="16" height="16" viewBox="0 0 16 16" fill="none" xmlns="http://www.w3.org/2000/svg">
<path d="M5.98014 14.6667H9.98014C13.3135 14.6667 14.6468 13.3333 14.6468 9.99999V5.99999C14.6468 2.66666 13.3135 1.33333 9.98014 1.33333H5.98014C2.64681 1.33333 1.31348 2.66666 1.31348 5.99999V9.99999C1.31348 13.3333 2.64681 14.6667 5.98014 14.6667Z" stroke="#292D32" stroke-linecap="round" stroke-linejoin="round"/>
<path d="M1.31348 8.46665L5.31348 8.45332C5.81348 8.45332 6.37348 8.83332 6.56014 9.29999L7.32014 11.22C7.49348 11.6533 7.76681 11.6533 7.94014 11.22L9.46681 7.34665C9.61348 6.97332 9.88681 6.95999 10.0735 7.31332L10.7668 8.62665C10.9735 9.01999 11.5068 9.33999 11.9468 9.33999H14.6535" stroke="#292D32" stroke-linecap="round" stroke-linejoin="round"/>
</svg>
