<svg xmlns="http://www.w3.org/2000/svg" width="14" height="14" viewBox="0 0 14 14" fill="none">
  <g clip-path="url(#clip0_1449_8754)">
    <path d="M6.9987 9.91732C8.60953 9.91732 9.91537 8.61148 9.91537 7.00065C9.91537 5.38982 8.60953 4.08398 6.9987 4.08398C5.38787 4.08398 4.08203 5.38982 4.08203 7.00065C4.08203 8.61148 5.38787 9.91732 6.9987 9.91732Z" fill="#33475B"/>
    <path d="M13.4167 6.41667H12.8036C12.5294 3.66508 10.3349 1.47058 7.58333 1.19642V0.583333C7.58333 0.261333 7.32258 0 7 0C6.67742 0 6.41667 0.261333 6.41667 0.583333V1.19642C3.66508 1.47058 1.47058 3.66508 1.19642 6.41667H0.583333C0.26075 6.41667 0 6.678 0 7C0 7.322 0.26075 7.58333 0.583333 7.58333H1.19642C1.47117 10.3349 3.66508 12.5294 6.41667 12.8036V13.4167C6.41667 13.7387 6.67742 14 7 14C7.32258 14 7.58333 13.7387 7.58333 13.4167V12.8036C10.3349 12.5288 12.5294 10.3349 12.8036 7.58333H13.4167C13.7392 7.58333 14 7.322 14 7C14 6.678 13.7392 6.41667 13.4167 6.41667ZM7.57517 11.6276C7.55417 11.3248 7.30858 11.0833 7 11.0833C6.69142 11.0833 6.44583 11.3248 6.42483 11.6276C4.312 11.3663 2.63433 9.68858 2.373 7.57575C2.67575 7.55417 2.91667 7.308 2.91667 7C2.91667 6.692 2.67575 6.44583 2.37242 6.42483C2.63375 4.312 4.31142 2.63433 6.42425 2.373C6.44583 2.67517 6.69142 2.91667 7 2.91667C7.30858 2.91667 7.55417 2.67517 7.57517 2.37242C9.688 2.63375 11.3657 4.31142 11.627 6.42425C11.3242 6.44583 11.0833 6.692 11.0833 7C11.0833 7.308 11.3243 7.55417 11.6276 7.57517C11.3657 9.68858 9.68858 11.3657 7.57517 11.6276Z" fill="#33475B"/>
  </g>
  <defs>
    <clipPath id="clip0_1449_8754">
      <rect width="14" height="14" fill="white"/>
    </clipPath>
  </defs>
</svg>