<svg width="40" height="40" viewBox="0 0 40 40" fill="none" xmlns="http://www.w3.org/2000/svg">
<g id="fi_2907776">
<path id="Vector" d="M31.9 36.25H8.1C6.94631 36.25 5.83987 35.7917 5.02409 34.9759C4.2083 34.1601 3.75 33.0537 3.75 31.9V8.1C3.75 6.94631 4.2083 5.83987 5.02409 5.02409C5.83987 4.2083 6.94631 3.75 8.1 3.75H31.9C33.0537 3.75 34.1601 4.2083 34.9759 5.02409C35.7917 5.83987 36.25 6.94631 36.25 8.1V31.9C36.25 33.0537 35.7917 34.1601 34.9759 34.9759C34.1601 35.7917 33.0537 36.25 31.9 36.25ZM8.1 6.25C7.60935 6.25 7.13879 6.44491 6.79185 6.79185C6.44491 7.13879 6.25 7.60935 6.25 8.1V31.9C6.25 32.3906 6.44491 32.8612 6.79185 33.2081C7.13879 33.5551 7.60935 33.75 8.1 33.75H31.9C32.3906 33.75 32.8612 33.5551 33.2081 33.2081C33.5551 32.8612 33.75 32.3906 33.75 31.9V8.1C33.75 7.60935 33.5551 7.13879 33.2081 6.79185C32.8612 6.44491 32.3906 6.25 31.9 6.25H8.1Z" fill="#909DB0"/>
<path id="Vector_2" d="M4.99691 31.3501C4.81686 31.3495 4.639 31.3106 4.47518 31.2359C4.31137 31.1611 4.16537 31.0524 4.04691 30.9168C3.9403 30.7911 3.85957 30.6456 3.80939 30.4887C3.7592 30.3317 3.74054 30.1664 3.75448 30.0022C3.76842 29.838 3.81469 29.6782 3.89062 29.532C3.96655 29.3857 4.07064 29.256 4.19691 29.1501L12.7302 21.9501C13.3674 21.4124 14.1829 21.1329 15.0159 21.1668C15.8489 21.2008 16.639 21.5456 17.2302 22.1334L21.2802 26.1834C21.4312 26.3125 21.6233 26.3835 21.8219 26.3835C22.0205 26.3835 22.2126 26.3125 22.3636 26.1834L26.2969 23.3334C26.8798 22.8847 27.5947 22.6414 28.3302 22.6414C29.0658 22.6414 29.7807 22.8847 30.3636 23.3334L35.7802 27.6501C35.9094 27.753 36.017 27.8802 36.0969 28.0247C36.1769 28.1692 36.2276 28.3279 36.2461 28.492C36.2647 28.656 36.2508 28.8222 36.2052 28.9808C36.1595 29.1395 36.0831 29.2876 35.9802 29.4168C35.8774 29.5459 35.7501 29.6535 35.6056 29.7334C35.4612 29.8134 35.3024 29.8641 35.1383 29.8826C34.9743 29.9012 34.8082 29.8873 34.6495 29.8417C34.4908 29.7961 34.3427 29.7196 34.2136 29.6168L28.8136 25.2834C28.6679 25.1712 28.4891 25.1104 28.3052 25.1104C28.1214 25.1104 27.9426 25.1712 27.7969 25.2834L23.8636 28.3334C23.2233 28.8142 22.4315 29.0484 21.6327 28.9933C20.834 28.9382 20.0818 28.5975 19.5136 28.0334L15.4636 23.9001C15.3105 23.7619 15.1115 23.6854 14.9052 23.6854C14.699 23.6854 14.5 23.7619 14.3469 23.9001L5.79691 31.0668C5.57366 31.2555 5.28919 31.3562 4.99691 31.3501Z" fill="#909DB0"/>
<path id="Vector_3" d="M24.9974 19.5827C24.0909 19.5827 23.2048 19.3139 22.451 18.8103C21.6973 18.3066 21.1099 17.5908 20.763 16.7533C20.416 15.9158 20.3253 14.9943 20.5021 14.1052C20.679 13.2161 21.1155 12.3994 21.7565 11.7584C22.3975 11.1175 23.2142 10.6809 24.1032 10.5041C24.9923 10.3272 25.9139 10.418 26.7514 10.7649C27.5889 11.1118 28.3047 11.6993 28.8083 12.453C29.3119 13.2067 29.5807 14.0929 29.5807 14.9994C29.5807 16.2149 29.0978 17.3807 28.2383 18.2403C27.3788 19.0998 26.213 19.5827 24.9974 19.5827ZM24.9974 12.916C24.5854 12.916 24.1826 13.0382 23.84 13.2671C23.4974 13.496 23.2303 13.8214 23.0726 14.2021C22.915 14.5828 22.8737 15.0017 22.9541 15.4058C23.0345 15.8099 23.2329 16.1811 23.5243 16.4725C23.8156 16.7638 24.1868 16.9623 24.591 17.0427C24.9951 17.123 25.414 17.0818 25.7947 16.9241C26.1753 16.7664 26.5007 16.4994 26.7296 16.1568C26.9585 15.8142 27.0807 15.4114 27.0807 14.9994C27.0807 14.4468 26.8612 13.9169 26.4705 13.5262C26.0798 13.1355 25.5499 12.916 24.9974 12.916Z" fill="#909DB0"/>
</g>
</svg>
