<svg width="14" height="14" viewBox="0 0 14 14" fill="none" xmlns="http://www.w3.org/2000/svg">
<g id="vuesax/bold/edit-2">
<g id="edit-2">
<path id="Vector" d="M11.0948 2.03001C9.96317 0.898344 8.85484 0.869177 7.69401 2.03001L6.98817 2.73584C6.92984 2.79418 6.90651 2.88751 6.92984 2.96918C7.37317 4.51501 8.60984 5.75168 10.1557 6.19501C10.179 6.20084 10.2023 6.20668 10.2257 6.20668C10.2898 6.20668 10.3482 6.18334 10.3948 6.13668L11.0948 5.43084C11.6723 4.85918 11.9523 4.30501 11.9523 3.74501C11.9582 3.16751 11.6782 2.60751 11.0948 2.03001Z" fill="#1E2224"/>
<path id="Vector_2" d="M9.10586 6.72584C8.93669 6.64417 8.77336 6.56251 8.61586 6.46917C8.48752 6.39334 8.36502 6.31167 8.24252 6.22417C8.14336 6.16001 8.02669 6.06667 7.91586 5.97334C7.90419 5.96751 7.86336 5.93251 7.81669 5.88584C7.62419 5.72251 7.40836 5.51251 7.21586 5.27917C7.19836 5.26751 7.16919 5.22667 7.12836 5.17417C7.07002 5.10417 6.97086 4.98751 6.88336 4.85334C6.81336 4.76584 6.73169 4.63751 6.65586 4.50917C6.56252 4.35167 6.48086 4.19417 6.39919 4.03084C6.29211 3.80139 5.99097 3.73323 5.81192 3.91227L2.53169 7.19251C2.45586 7.26834 2.38586 7.41417 2.36836 7.51334L2.05336 9.74751C1.99502 10.1442 2.10586 10.5175 2.35086 10.7683C2.56086 10.9725 2.85252 11.0833 3.16752 11.0833C3.23752 11.0833 3.30752 11.0775 3.37752 11.0658L5.61752 10.7508C5.72252 10.7333 5.86836 10.6633 5.93836 10.5875L9.224 7.30186C9.39947 7.1264 9.33354 6.8245 9.10586 6.72584Z" fill="#1E2224"/>
</g>
</g>
</svg>
