<svg width="16" height="16" viewBox="0 0 16 16" fill="none" xmlns="http://www.w3.org/2000/svg">
<g id="fi_2118701">
<path id="Vector" d="M15.3307 12.666C15.3307 12.8428 15.2605 13.0124 15.1355 13.1374C15.0104 13.2624 14.8409 13.3327 14.6641 13.3327H6.66406C6.48725 13.3327 6.31768 13.2624 6.19266 13.1374C6.06763 13.0124 5.9974 12.8428 5.9974 12.666C5.9974 11.6052 6.41882 10.5877 7.16897 9.83759C7.91911 9.08744 8.93653 8.66602 9.9974 8.66602H11.3307C12.3916 8.66602 13.409 9.08744 14.1592 9.83759C14.9093 10.5877 15.3307 11.6052 15.3307 12.666ZM10.6641 2.66602C10.1366 2.66602 9.62107 2.82241 9.18254 3.11543C8.74401 3.40845 8.40222 3.82492 8.20038 4.31219C7.99855 4.79946 7.94574 5.33564 8.04864 5.85292C8.15153 6.37021 8.4055 6.84536 8.77844 7.2183C9.15138 7.59124 9.62654 7.84522 10.1438 7.94811C10.6611 8.051 11.1973 7.9982 11.6846 7.79636C12.1718 7.59453 12.5883 7.25273 12.8813 6.8142C13.1743 6.37567 13.3307 5.8601 13.3307 5.33268C13.3307 4.62544 13.0498 3.94716 12.5497 3.44706C12.0496 2.94697 11.3713 2.66602 10.6641 2.66602ZM4.66406 2.66602C4.13665 2.66602 3.62107 2.82241 3.18254 3.11543C2.74401 3.40845 2.40222 3.82492 2.20038 4.31219C1.99855 4.79946 1.94574 5.33564 2.04864 5.85292C2.15153 6.37021 2.4055 6.84536 2.77844 7.2183C3.15138 7.59124 3.62654 7.84522 4.14382 7.94811C4.6611 8.051 5.19728 7.9982 5.68455 7.79636C6.17182 7.59453 6.5883 7.25273 6.88131 6.8142C7.17433 6.37567 7.33073 5.8601 7.33073 5.33268C7.33073 4.62544 7.04978 3.94716 6.54968 3.44706C6.04958 2.94697 5.37131 2.66602 4.66406 2.66602ZM4.66406 12.666C4.66307 11.9658 4.80103 11.2723 5.06996 10.6257C5.33888 9.97913 5.73342 9.39235 6.23073 8.89935C5.82375 8.7457 5.39241 8.66665 4.9574 8.66602H4.37073C3.3882 8.66778 2.44642 9.05887 1.75167 9.75362C1.05691 10.4484 0.665825 11.3902 0.664062 12.3727V12.666C0.664063 12.8428 0.7343 13.0124 0.859325 13.1374C0.984349 13.2624 1.15392 13.3327 1.33073 13.3327H4.78406C4.70645 13.1189 4.66587 12.8934 4.66406 12.666Z" fill="#1E2224"/>
</g>
</svg>
