<svg xmlns="http://www.w3.org/2000/svg" width="18" height="18" viewBox="0 0 18 18" fill="none">
  <g clip-path="url(#clip0_1692_7821)">
    <path d="M9 16.5C13.1421 16.5 16.5 13.1421 16.5 9C16.5 4.85786 13.1421 1.5 9 1.5C4.85786 1.5 1.5 4.85786 1.5 9C1.5 13.1421 4.85786 16.5 9 16.5Z" stroke="#1E2224" stroke-width="1.5" stroke-linecap="round" stroke-linejoin="round"/>
    <path d="M6.82031 6.74945C6.99664 6.2482 7.34468 5.82553 7.80278 5.5563C8.26088 5.28707 8.79948 5.18865 9.32319 5.27848C9.84691 5.36831 10.3219 5.64059 10.6641 6.0471C11.0063 6.4536 11.1936 6.96809 11.1928 7.49945C11.1928 8.99945 8.94281 9.74945 8.94281 9.74945" stroke="#1E2224" stroke-width="1.5" stroke-linecap="round" stroke-linejoin="round"/>
    <path d="M9 12.75H9.00773" stroke="#1E2224" stroke-width="1.5" stroke-linecap="round" stroke-linejoin="round"/>
  </g>
  <defs>
    <clipPath id="clip0_1692_7821">
      <rect width="18" height="18" fill="white"/>
    </clipPath>
  </defs>
</svg>