<svg xmlns="http://www.w3.org/2000/svg" width="14" height="14" viewBox="0 0 14 14" fill="none">
  <path d="M1.75 3.5H2.91667H12.25" stroke="#E73725" stroke-width="1.5" stroke-linecap="round" stroke-linejoin="round"/>
  <path d="M11.0827 3.49984V11.6665C11.0827 11.9759 10.9598 12.2727 10.741 12.4915C10.5222 12.7103 10.2254 12.8332 9.91602 12.8332H4.08268C3.77326 12.8332 3.47652 12.7103 3.25772 12.4915C3.03893 12.2727 2.91602 11.9759 2.91602 11.6665V3.49984M4.66602 3.49984V2.33317C4.66602 2.02375 4.78893 1.72701 5.00772 1.50821C5.22652 1.28942 5.52326 1.1665 5.83268 1.1665H8.16602C8.47543 1.1665 8.77218 1.28942 8.99097 1.50821C9.20977 1.72701 9.33268 2.02375 9.33268 2.33317V3.49984" stroke="#E73725" stroke-width="1.5" stroke-linecap="round" stroke-linejoin="round"/>
  <path d="M5.83398 6.4165V9.9165" stroke="#E73725" stroke-width="1.5" stroke-linecap="round" stroke-linejoin="round"/>
  <path d="M8.16602 6.4165V9.9165" stroke="#E73725" stroke-width="1.5" stroke-linecap="round" stroke-linejoin="round"/>
</svg>