<svg width="90" height="64" viewBox="0 0 90 64" fill="none" xmlns="http://www.w3.org/2000/svg">
<rect width="90" height="64" rx="2" fill="#BDBDBD"/>
<path d="M0 2C0 0.89543 0.895431 0 2 0H88C89.1046 0 90 0.895431 90 2V7H0V2Z" fill="#1E2224"/>
<rect x="2.5" y="9.5" width="20" height="52" fill="#D9D9D9" stroke="#DCDCDC"/>
<rect x="2" y="9" width="21" height="6" fill="#CCCDCF"/>
<rect x="3" y="11" width="12" height="2" fill="#949DA2"/>
<rect x="3" y="17" width="19" height="8" fill="#CCCDCF"/>
<rect x="4" y="18" width="10" height="2" fill="#A3A7A9"/>
<rect x="4" y="21" width="7" height="1" fill="#9BAEB7"/>
<rect x="4" y="23" width="7" height="1" fill="#9BAEB7"/>
<rect x="3" y="27" width="19" height="8" fill="#CCCDCF"/>
<rect x="4" y="28" width="10" height="2" fill="#A3A7A9"/>
<rect x="4" y="31" width="7" height="1" fill="#9BAEB7"/>
<rect x="4" y="33" width="7" height="1" fill="#9BAEB7"/>
<rect x="3" y="37" width="19" height="8" fill="#CCCDCF"/>
<rect x="4" y="38" width="10" height="2" fill="#A3A7A9"/>
<rect x="4" y="41" width="7" height="1" fill="#9BAEB7"/>
<rect x="4" y="43" width="7" height="1" fill="#9BAEB7"/>
<rect x="3" y="47" width="19" height="8" fill="#CCCDCF"/>
<rect x="4" y="48" width="10" height="2" fill="#A3A7A9"/>
<rect x="4" y="51" width="7" height="1" fill="#9BAEB7"/>
<rect x="4" y="53" width="7" height="1" fill="#9BAEB7"/>
<rect x="25.5" y="9.5" width="20" height="52" fill="#D9D9D9" stroke="#DCDCDC"/>
<rect x="25" y="9" width="21" height="6" fill="#CCCDCF"/>
<rect x="26" y="11" width="12" height="2" fill="#949DA2"/>
<rect x="26" y="17" width="19" height="8" fill="#CCCDCF"/>
<rect x="27" y="18" width="10" height="2" fill="#A3A7A9"/>
<rect x="27" y="21" width="7" height="1" fill="#9BAEB7"/>
<rect x="27" y="23" width="7" height="1" fill="#9BAEB7"/>
<rect x="26" y="27" width="19" height="8" fill="#CCCDCF"/>
<rect x="27" y="28" width="10" height="2" fill="#A3A7A9"/>
<rect x="27" y="31" width="7" height="1" fill="#9BAEB7"/>
<rect x="27" y="33" width="7" height="1" fill="#9BAEB7"/>
<rect x="26" y="37" width="19" height="8" fill="#CCCDCF"/>
<rect x="27" y="38" width="10" height="2" fill="#A3A7A9"/>
<rect x="27" y="41" width="7" height="1" fill="#9BAEB7"/>
<rect x="27" y="43" width="7" height="1" fill="#9BAEB7"/>
<rect x="26" y="47" width="19" height="8" fill="#CCCDCF"/>
<rect x="27" y="48" width="10" height="2" fill="#A3A7A9"/>
<rect x="27" y="51" width="7" height="1" fill="#9BAEB7"/>
<rect x="27" y="53" width="7" height="1" fill="#9BAEB7"/>
<rect x="48.5" y="9.5" width="20" height="52" fill="#D9D9D9" stroke="#DCDCDC"/>
<rect x="48" y="9" width="21" height="6" fill="#CCCDCF"/>
<rect x="49" y="11" width="12" height="2" fill="#949DA2"/>
<rect x="49" y="17" width="19" height="8" fill="#CCCDCF"/>
<rect x="50" y="18" width="10" height="2" fill="#A3A7A9"/>
<rect x="50" y="21" width="7" height="1" fill="#9BAEB7"/>
<rect x="50" y="23" width="7" height="1" fill="#9BAEB7"/>
<rect x="49" y="27" width="19" height="8" fill="#CCCDCF"/>
<rect x="50" y="28" width="10" height="2" fill="#A3A7A9"/>
<rect x="50" y="31" width="7" height="1" fill="#9BAEB7"/>
<rect x="50" y="33" width="7" height="1" fill="#9BAEB7"/>
<rect x="49" y="37" width="19" height="8" fill="#CCCDCF"/>
<rect x="50" y="38" width="10" height="2" fill="#A3A7A9"/>
<rect x="50" y="41" width="7" height="1" fill="#9BAEB7"/>
<rect x="50" y="43" width="7" height="1" fill="#9BAEB7"/>
<rect x="49" y="47" width="19" height="8" fill="#CCCDCF"/>
<rect x="50" y="48" width="10" height="2" fill="#A3A7A9"/>
<rect x="50" y="51" width="7" height="1" fill="#9BAEB7"/>
<rect x="50" y="53" width="7" height="1" fill="#9BAEB7"/>
<path d="M51.5 7.5H89.5V62C89.5 62.8284 88.8284 63.5 88 63.5H51.5V7.5Z" fill="white" stroke="#2B74DA"/>
<rect x="51" y="7" width="39" height="5" fill="#2B74DA"/>
<rect x="53" y="14" width="9" height="2" fill="#E3E5E9"/>
<rect x="53" y="25" width="9" height="2" fill="#E3E5E9"/>
<rect x="53" y="36" width="9" height="2" fill="#E3E5E9"/>
<rect x="53" y="47" width="9" height="2" fill="#E3E5E9"/>
<rect x="53" y="17" width="22" height="3" fill="#CED1D3"/>
<rect x="53" y="28" width="22" height="3" fill="#CED1D3"/>
<rect x="53" y="39" width="22" height="3" fill="#CED1D3"/>
<rect x="53" y="50" width="22" height="3" fill="#CED1D3"/>
</svg>
