<svg xmlns="http://www.w3.org/2000/svg" width="14" height="14" viewBox="0 0 14 14" fill="none">
  <path d="M6.41927 10.5007C6.41927 11.1423 5.89427 11.6673 5.2526 11.6673C4.61094 11.6673 4.08594 11.1423 4.08594 10.5007C4.08594 9.85898 4.61094 9.33398 5.2526 9.33398C5.89427 9.33398 6.41927 9.85898 6.41927 10.5007ZM5.2526 5.83398C4.61094 5.83398 4.08594 6.35898 4.08594 7.00065C4.08594 7.64232 4.61094 8.16732 5.2526 8.16732C5.89427 8.16732 6.41927 7.64232 6.41927 7.00065C6.41927 6.35898 5.89427 5.83398 5.2526 5.83398ZM5.2526 2.33398C4.61094 2.33398 4.08594 2.85898 4.08594 3.50065C4.08594 4.14232 4.61094 4.66732 5.2526 4.66732C5.89427 4.66732 6.41927 4.14232 6.41927 3.50065C6.41927 2.85898 5.89427 2.33398 5.2526 2.33398ZM8.7526 4.66732C9.39427 4.66732 9.91927 4.14232 9.91927 3.50065C9.91927 2.85898 9.39427 2.33398 8.7526 2.33398C8.11094 2.33398 7.58594 2.85898 7.58594 3.50065C7.58594 4.14232 8.11094 4.66732 8.7526 4.66732ZM8.7526 5.83398C8.11094 5.83398 7.58594 6.35898 7.58594 7.00065C7.58594 7.64232 8.11094 8.16732 8.7526 8.16732C9.39427 8.16732 9.91927 7.64232 9.91927 7.00065C9.91927 6.35898 9.39427 5.83398 8.7526 5.83398ZM8.7526 9.33398C8.11094 9.33398 7.58594 9.85898 7.58594 10.5007C7.58594 11.1423 8.11094 11.6673 8.7526 11.6673C9.39427 11.6673 9.91927 11.1423 9.91927 10.5007C9.91927 9.85898 9.39427 9.33398 8.7526 9.33398Z" fill="#33475B"/>
</svg>