<svg xmlns="http://www.w3.org/2000/svg" width="18" height="18" viewBox="0 0 18 18" fill="none">
  <path fill-rule="evenodd" clip-rule="evenodd" d="M4.78437 14.0281L5.45156 14.0109C5.52546 14.0093 5.5983 13.9931 5.66593 13.9632C5.73355 13.9334 5.79462 13.8905 5.84564 13.837C5.89666 13.7835 5.93662 13.7205 5.96324 13.6515C5.98986 13.5826 6.0026 13.509 6.00075 13.4351C5.9989 13.3612 5.98249 13.2884 5.95246 13.2209C5.92242 13.1533 5.87936 13.0924 5.82573 13.0415C5.7721 12.9906 5.70896 12.9509 5.63992 12.9244C5.57089 12.898 5.49732 12.8855 5.42343 12.8875L3.36093 12.9375C3.21197 12.9415 3.07068 13.0045 2.96813 13.1126C2.86558 13.2207 2.81017 13.3651 2.81407 13.5141L2.85939 15.3891C2.86332 15.5381 2.92624 15.6795 3.03434 15.7822C3.14244 15.8849 3.28688 15.9405 3.43594 15.9368C3.58499 15.933 3.72647 15.8703 3.82931 15.7623C3.93214 15.6544 3.98792 15.51 3.98439 15.3609L3.97031 14.8125C5.29727 15.9604 6.97701 16.6197 8.73049 16.6811C10.484 16.7424 12.2057 16.202 13.6096 15.1496C15.0135 14.0972 16.0151 12.5962 16.4481 10.8959C16.881 9.19559 16.7192 7.39834 15.9896 5.80268C15.26 4.20703 14.0064 2.90901 12.4372 2.12424C10.8679 1.33947 9.07736 1.11519 7.36301 1.48865C5.64866 1.86211 4.11367 2.81084 3.01302 4.17723C1.91237 5.54362 1.3123 7.24544 1.3125 9C1.3125 9.14919 1.37176 9.29226 1.47725 9.39775C1.58274 9.50324 1.72582 9.5625 1.875 9.5625C2.02418 9.5625 2.16726 9.50324 2.27275 9.39775C2.37824 9.29226 2.4375 9.14919 2.4375 9C2.43696 7.50576 2.94618 6.05603 3.88104 4.89035C4.8159 3.72468 6.12045 2.9128 7.57916 2.58885C9.03787 2.26491 10.5634 2.44829 11.9038 3.10869C13.2442 3.76909 14.3192 4.86699 14.9512 6.22101C15.5832 7.57503 15.7343 9.10413 15.3797 10.5557C15.0251 12.0072 14.1859 13.2944 13.0007 14.2044C11.8156 15.1145 10.3554 15.593 8.86155 15.561C7.36765 15.5289 5.92937 14.9882 4.78437 14.0281ZM8.4375 5.4375V9C8.43745 9.07388 8.45197 9.14705 8.48022 9.21532C8.50847 9.28359 8.5499 9.34562 8.60214 9.39786C8.65439 9.4501 8.71641 9.49153 8.78468 9.51978C8.85295 9.54803 8.92612 9.56255 9 9.5625H12.7719C12.9211 9.5625 13.0642 9.50324 13.1696 9.39775C13.2751 9.29226 13.3344 9.14919 13.3344 9C13.3344 8.85082 13.2751 8.70774 13.1696 8.60225C13.0642 8.49676 12.9211 8.4375 12.7719 8.4375H9.5625V5.4375C9.5625 5.28832 9.50324 5.14524 9.39775 5.03975C9.29226 4.93426 9.14918 4.875 9 4.875C8.85082 4.875 8.70774 4.93426 8.60225 5.03975C8.49676 5.14524 8.4375 5.28832 8.4375 5.4375Z" fill="#2B74DA"/>
</svg>