<svg width="14" height="14" viewBox="0 0 14 14" fill="none" xmlns="http://www.w3.org/2000/svg">
<g id="thumbtacks 1">
<g id="_x31_6-thumbtack">
<path id="Vector" d="M12.2937 5.55547L8.44365 1.70547C8.26865 1.53047 8.00615 1.53047 7.83115 1.70547L6.43115 3.10547C6.2124 3.32422 6.2999 3.58672 6.43115 3.71797L6.7374 4.02422L5.4249 5.33672C4.76865 5.20547 2.9749 4.89922 2.0124 5.86172C1.8374 6.03672 1.8374 6.29922 2.0124 6.47422L4.50615 8.96797L1.7499 11.7242C1.5749 11.8992 1.5749 12.1617 1.7499 12.3367C1.9249 12.5117 2.23115 12.468 2.3624 12.3367L5.11865 9.58047L7.6124 12.0742C7.8749 12.293 8.1374 12.2055 8.2249 12.0742C9.1874 11.1117 8.88115 9.31797 8.7499 8.66172L10.0624 7.34922L10.3687 7.65547C10.5437 7.83047 10.8062 7.83047 10.9812 7.65547L12.3812 6.25547C12.4687 5.99297 12.4687 5.73047 12.2937 5.55547ZM10.5874 6.64922L10.2812 6.34297C10.1062 6.16797 9.84365 6.16797 9.66865 6.34297L7.8749 8.18047C7.74365 8.31172 7.6999 8.44297 7.74365 8.61797C7.8749 9.09922 8.09365 10.2805 7.74365 11.068L2.93115 6.25547C3.6749 5.90547 4.8999 6.12422 5.38115 6.25547C5.5124 6.29922 5.6874 6.25547 5.81865 6.12422L7.6124 4.33047C7.8749 4.06797 7.74365 3.84922 7.6124 3.71797L7.30615 3.41172L8.1374 2.62422L11.3749 5.86172L10.5874 6.64922Z" fill="#33475B"/>
</g>
</g>
</svg>
