<svg width="70" height="28" viewBox="0 0 70 28" fill="none" xmlns="http://www.w3.org/2000/svg">
<g id="Vector">
<path d="M23.256 12.25V4.9H26.2549C27.0304 4.9 27.6209 5.0785 28.0265 5.4355C28.4391 5.7855 28.6455 6.237 28.6455 6.79C28.6455 7.252 28.5174 7.623 28.2613 7.903C28.0122 8.176 27.7063 8.3615 27.3434 8.4595C27.7703 8.5435 28.1225 8.7535 28.4 9.0895C28.6775 9.4185 28.8162 9.8035 28.8162 10.2445C28.8162 10.8255 28.6028 11.305 28.1759 11.683C27.749 12.061 27.1442 12.25 26.3616 12.25H23.256ZM24.622 7.987H26.0521C26.4363 7.987 26.7316 7.8995 26.9379 7.7245C27.1442 7.5495 27.2474 7.301 27.2474 6.979C27.2474 6.671 27.1442 6.4295 26.9379 6.2545C26.7387 6.0725 26.4363 5.9815 26.0308 5.9815H24.622V7.987ZM24.622 11.158H26.1482C26.5537 11.158 26.8668 11.067 27.0873 10.885C27.315 10.696 27.4288 10.4335 27.4288 10.0975C27.4288 9.7545 27.3114 9.485 27.0766 9.289C26.8419 9.093 26.5252 8.995 26.1268 8.995H24.622V11.158Z" fill="#E73725"/>
<path d="M33.2461 12.376C32.499 12.376 31.8444 12.215 31.2824 11.893C30.7274 11.571 30.2899 11.1265 29.9697 10.5595C29.6566 9.9855 29.5001 9.324 29.5001 8.575C29.5001 7.826 29.6566 7.168 29.9697 6.601C30.2899 6.027 30.7274 5.579 31.2824 5.257C31.8444 4.935 32.499 4.774 33.2461 4.774C33.986 4.774 34.637 4.935 35.1991 5.257C35.7612 5.579 36.1987 6.027 36.5118 6.601C36.8248 7.168 36.9813 7.826 36.9813 8.575C36.9813 9.324 36.8248 9.9855 36.5118 10.5595C36.1987 11.1265 35.7612 11.571 35.1991 11.893C34.637 12.215 33.986 12.376 33.2461 12.376ZM33.2461 11.1685C33.9575 11.1685 34.5232 10.9375 34.9429 10.4755C35.3698 10.0135 35.5833 9.38 35.5833 8.575C35.5833 7.77 35.3698 7.1365 34.9429 6.6745C34.5232 6.2125 33.9575 5.9815 33.2461 5.9815C32.5346 5.9815 31.9654 6.2125 31.5385 6.6745C31.1116 7.1365 30.8982 7.77 30.8982 8.575C30.8982 9.38 31.1116 10.0135 31.5385 10.4755C31.9654 10.9375 32.5346 11.1685 33.2461 11.1685Z" fill="#E73725"/>
<path d="M41.4449 12.376C40.6978 12.376 40.0433 12.215 39.4812 11.893C38.9262 11.571 38.4887 11.1265 38.1685 10.5595C37.8554 9.9855 37.6989 9.324 37.6989 8.575C37.6989 7.826 37.8554 7.168 38.1685 6.601C38.4887 6.027 38.9262 5.579 39.4812 5.257C40.0433 4.935 40.6978 4.774 41.4449 4.774C42.1848 4.774 42.8358 4.935 43.3979 5.257C43.96 5.579 44.3975 6.027 44.7106 6.601C45.0236 7.168 45.1802 7.826 45.1802 8.575C45.1802 9.324 45.0236 9.9855 44.7106 10.5595C44.3975 11.1265 43.96 11.571 43.3979 11.893C42.8358 12.215 42.1848 12.376 41.4449 12.376ZM41.4449 11.1685C42.1564 11.1685 42.722 10.9375 43.1418 10.4755C43.5686 10.0135 43.7821 9.38 43.7821 8.575C43.7821 7.77 43.5686 7.1365 43.1418 6.6745C42.722 6.2125 42.1564 5.9815 41.4449 5.9815C40.7334 5.9815 40.1642 6.2125 39.7373 6.6745C39.3104 7.1365 39.097 7.77 39.097 8.575C39.097 9.38 39.3104 10.0135 39.7373 10.4755C40.1642 10.9375 40.7334 11.1685 41.4449 11.1685Z" fill="#E73725"/>
<path d="M46.1432 12.25V4.9H47.5092V7.8715L50.2733 4.9H51.9596L49.2061 7.819L52.0343 12.25H50.3587L48.2243 8.848L47.5092 9.6145V12.25H46.1432Z" fill="#E73725"/>
<path d="M55.0265 12.25V4.9H56.6487L59.0286 9.562L61.3765 4.9H62.9986V12.25H61.6326V7.1785L59.5515 11.2H58.4736L56.3925 7.1785V12.25H55.0265Z" fill="#E73725"/>
<path d="M66.1367 12.25V9.6355L63.6287 4.9H65.1761L66.8303 8.2915L68.4739 4.9H70L67.5027 9.6355V12.25H66.1367Z" fill="#E73725"/>
<path d="M23.4576 23.9167V14.525H26.9895C27.7531 14.525 28.385 14.6502 28.885 14.9007C29.385 15.1511 29.7577 15.4955 30.0032 15.9337C30.2487 16.372 30.3714 16.864 30.3714 17.4096C30.3714 17.9284 30.2532 18.4069 30.0168 18.8452C29.7805 19.2745 29.4123 19.6233 28.9123 19.8917C28.4123 20.1511 27.7713 20.2807 26.9895 20.2807H25.2031V23.9167H23.4576ZM25.2031 18.8854H26.8804C27.4895 18.8854 27.9259 18.7557 28.1895 18.4963C28.4623 18.228 28.5986 17.8657 28.5986 17.4096C28.5986 16.9445 28.4623 16.5822 28.1895 16.3228C27.9259 16.0545 27.4895 15.9203 26.8804 15.9203H25.2031V18.8854Z" fill="#E73725"/>
<path d="M31.4977 23.9167V14.525H33.2432V22.575H37.4706V23.9167H31.4977Z" fill="#E73725"/>
<path d="M38.1519 23.9167L41.6429 14.525H43.6066L47.0976 23.9167H45.243L44.4793 21.7432H40.7565L39.9792 23.9167H38.1519ZM41.2338 20.4015H44.002L42.6111 16.4972L41.2338 20.4015Z" fill="#E73725"/>
<path d="M49.447 23.9167V20.5759L46.2424 14.525H48.2197L50.3334 18.8586L52.4335 14.525H54.3835L51.1925 20.5759V23.9167H49.447Z" fill="#E73725"/>
<path d="M55.2587 23.9167V14.525H61.4907V15.9069H57.0042V18.4829H61.0816V19.8246H57.0042V22.5347H61.4907V23.9167H55.2587Z" fill="#E73725"/>
<path d="M62.8993 23.9167V14.525H66.404C67.1676 14.525 67.7949 14.6547 68.2858 14.9141C68.7858 15.1645 69.1586 15.5089 69.404 15.9472C69.6495 16.3765 69.7722 16.855 69.7722 17.3827C69.7722 17.9552 69.6177 18.4784 69.3086 18.9525C69.0086 19.4266 68.5358 19.7709 67.8904 19.9856L69.8677 23.9167H67.8631L66.0903 20.2137H64.6448V23.9167H62.8993ZM64.6448 18.9525H66.2949C66.8767 18.9525 67.304 18.8139 67.5767 18.5366C67.8495 18.2593 67.9858 17.8926 67.9858 17.4364C67.9858 16.9892 67.8495 16.6314 67.5767 16.3631C67.3131 16.0947 66.8812 15.9606 66.2812 15.9606H64.6448V18.9525Z" fill="#E73725"/>
<path d="M20.1587 26.3185C18.4774 26.3434 17.0022 26.3682 15.7083 26.3931C15.9308 26.3103 15.9637 26.2191 15.9637 26.2191C15.9637 26.2191 16.0626 26.0866 15.7083 25.9375C15.3539 25.7884 15.0077 25.3908 14.7935 25.4157C14.5874 25.4405 14.3814 25.5151 14.2495 25.5151C14.2495 25.5151 14.5132 25.3908 14.6451 25.2666C14.6451 25.2666 13.9775 25.4737 13.5902 25.308C13.5902 25.308 13.8704 25.1838 14.1259 25.0181C14.1259 25.0181 14.0929 24.7862 13.7962 24.8441C13.4995 24.8938 13.3265 25.0429 13.038 25.0595C12.7496 25.0761 12.6012 25.0264 12.6012 25.0264C12.6012 25.0264 12.9721 24.8027 13.2441 24.7033C13.4666 24.6205 13.8374 24.5791 13.8374 24.5791C13.9034 24.546 14.1259 23.9247 15.2715 22.0693C15.4693 21.7546 15.8236 21.2493 16.0791 20.8766C16.3264 20.5121 16.5324 20.0648 16.4994 19.7832C16.4665 19.485 16.1368 18.2343 15.5187 17.8035C14.9088 17.3728 14.5957 17.1326 14.5957 17.1326C14.5957 17.1326 15.0737 17.2817 15.4198 17.5136C15.766 17.7456 16.0214 17.7456 16.0214 17.7456C16.0214 17.7456 15.7907 17.3148 15.7083 17.1326C15.6258 16.9504 14.8017 16.5362 14.5297 16.47C14.266 16.4037 13.2276 17.0332 13.0133 17.3645C13.0463 17.232 13.104 17.1078 13.1699 17.0166C13.3924 16.7267 14.0682 16.3374 14.0682 16.3374C14.0682 16.3374 12.7248 16.7433 12.2716 17.3397C12.2716 17.3397 12.8485 16.3706 13.8457 15.973C14.4391 15.7328 15.0325 15.7659 15.0325 15.7659C14.7193 15.2523 13.7056 14.0182 13.6973 14.0182C12.8073 13.8359 11.0024 14.1838 11.0024 14.1838C11.3073 13.9685 12.2633 13.7945 12.7743 13.7117C12.9721 13.6786 13.1122 13.662 13.1122 13.662C13.1122 13.662 13.1122 13.6123 13.104 13.5212C13.071 13.1402 12.8485 11.4504 12.5518 10.6221C12.1397 9.46247 11.6947 8.55962 11.6947 8.55962C11.6947 8.55962 12.2633 9.13115 12.8402 9.94289C13.2276 10.4896 13.4748 11.4587 13.4748 11.4587C13.3017 9.57844 11.8595 7.40827 11.8595 7.40827C12.6259 8.00465 13.3182 8.92407 13.7715 9.70268C13.6726 7.98808 13.1864 6.49713 12.5435 6.06641C12.7661 6.20722 13.31 6.5634 13.6067 7.02725C13.6067 7.02725 14.1424 6.29005 14.4061 5.99186C14.7687 5.58599 15.1314 5.32922 15.1314 5.32922C15.1314 5.32922 15.1149 5.2878 15.0819 5.22154C15.1396 5.16356 15.1973 5.09729 15.2632 5.03103C15.6176 4.6997 15.6918 4.50919 15.6918 4.50919C15.5105 4.63344 15.189 4.70799 15.189 4.70799C15.189 4.70799 15.5269 4.46778 15.7412 4.21929C15.9555 3.97908 16.0874 3.8217 16.0874 3.8217C15.9967 4.05362 15.939 4.29383 15.939 4.29383C16.1039 4.211 16.5324 4.02877 16.8703 3.51522C17.2082 2.99339 17.7357 2.28104 17.9499 2.0077C18.1642 1.73436 18.4279 1.29536 18.4279 1.29536C18.4279 1.46102 18.4609 1.74265 18.4609 1.74265C18.5351 1.65981 18.8812 1.37819 18.9224 1.34506C19.0461 1.27051 19.3428 1.23738 19.3922 1.20425C19.4746 1.13798 19.4829 0.988885 19.4829 0.988885C19.4252 1.06343 19.2851 1.08 19.2851 1.08C19.3263 1.00545 19.4334 1.00545 19.4087 0.81494C19.3922 0.70726 19.3015 0.62443 19.3015 0.62443C19.3015 0.62443 19.351 1.01373 19.2026 1.02202L18.8483 1.06343C18.8483 1.06343 19.0625 0.980602 19.112 0.881205C19.1614 0.790091 19.0955 0.51675 19.0378 0.450485C18.9719 0.392504 18.7659 0.326239 18.7988 0.317956C18.8318 0.309673 19.112 0.218559 19.2191 0.201993C19.3263 0.185427 19.4087 0.110879 19.3015 0.0528974C19.1944 -0.0050841 18.8071 0.0031991 18.8071 0.0031991C18.6257 -0.0299332 18.3785 0.201993 18.2714 0.342805C18.1642 0.483617 18.2137 0.715544 18.1642 0.988885C18.1148 1.27051 17.6203 1.74265 17.6203 1.74265C17.7027 1.5687 17.7439 1.29536 17.7439 1.29536C17.7439 1.29536 17.2165 1.80063 16.6231 1.99114C16.0297 2.18165 15.255 2.91056 14.8924 3.30815C14.7193 3.49866 14.472 3.63947 14.2166 3.76372C14.5545 3.92109 14.711 4.40151 14.777 4.61687C14.7935 4.67486 14.8017 4.71627 14.8099 4.72455C14.8099 4.72455 14.538 4.36838 14.2578 4.20272C14.0764 4.09504 13.9034 4.02049 13.7633 3.97908C13.6561 3.94594 13.5737 3.9211 13.5243 3.91281L12.3045 4.3104C12.2633 4.23585 12.1727 4.17787 12.1727 4.17787C12.1644 4.40151 11.9914 5.05588 11.6452 5.42033C11.5793 5.49488 11.4804 5.56943 11.3897 5.63569C11.2661 5.68539 11.1507 5.49488 11.1754 5.42861C11.1919 5.3872 11.3732 5.35407 11.3732 5.35407C11.3732 5.35407 11.2826 5.31265 11.2084 5.31265C11.1095 5.31265 11.0106 5.30437 11.0106 5.30437C11.0106 5.30437 11.1754 5.21325 11.2991 5.20497C11.4227 5.19669 11.604 5.15527 11.604 5.15527C11.604 5.15527 11.4721 5.10558 11.3568 5.07244C11.2331 5.03931 11.0436 5.02274 11.0436 5.02274C11.0436 5.02274 11.0436 5.02274 11.1178 4.9482C11.1919 4.87365 11.3897 4.7494 11.3897 4.7494L11.1672 4.07019C11.1672 4.07019 11.0766 4.00393 10.9694 3.98736C10.8623 3.97079 10.5326 3.84655 10.5326 3.84655L10.9859 3.85483L10.8128 3.03481C10.8128 3.03481 11.1342 3.09279 11.3238 3.05137C11.5051 3.01824 11.9419 2.7449 11.9419 2.7449L12.2056 3.35785C12.2056 3.35785 12.1891 3.00167 12.1644 2.85258C12.1397 2.70348 11.9996 2.14852 11.9337 2.03255C11.8183 1.85033 11.571 1.74265 11.571 1.74265C10.887 1.46102 9.80736 1.55213 9.42001 2.23135C9.30463 2.43842 9.20573 2.7449 9.35408 3.2336C9.45298 3.54007 9.51891 3.63119 9.51891 3.63119C9.51891 3.63119 9.26342 3.65604 9.25518 3.75543C9.24694 3.86311 9.30463 4.16959 9.44474 4.31868C9.58484 4.46778 9.78264 4.60859 9.78264 4.60859C9.78264 4.60859 9.78264 4.60859 9.86505 4.8488C9.88978 4.91506 9.92274 4.99789 9.96395 5.08072C9.8156 5.24639 9.56836 5.4866 9.32111 5.61912C8.92552 5.8262 8.35686 6.18237 8.32389 6.20722C8.15907 6.30662 8.0272 6.39773 7.95303 6.48057C8.18379 6.38945 8.44752 6.30662 8.67004 6.23207C8.92552 6.14924 9.12332 6.09126 9.12332 6.09126C9.12332 6.09126 9.04915 6.14924 8.92552 6.24036C8.77718 6.34804 8.5629 6.48885 8.29093 6.64623C7.82116 6.91129 7.2525 7.44968 6.98053 7.78929C6.60967 8.28627 6.28001 8.72528 6.28001 8.72528C6.28001 8.72528 6.41187 8.78326 6.5767 8.87437C6.46132 9.21398 6.20583 9.97602 6.06573 10.1914C5.88442 10.4647 5.68662 10.8043 5.68662 10.8043L5.89266 10.7546C6.15639 10.7463 6.38715 10.912 6.38715 10.912C6.38715 10.912 5.73607 11.2185 5.34872 11.7486C4.96137 12.2787 4.95313 12.9579 4.95313 12.9579C4.85423 12.8585 4.59875 12.6183 4.46688 12.4858C4.45864 12.5106 4.4504 12.5355 4.44216 12.5603C4.43392 12.5769 4.42567 12.5935 4.42567 12.61C4.48337 12.8585 4.58226 13.2644 4.67292 13.4218C4.90368 13.8111 5.34872 14.101 5.34872 14.101C5.34872 14.101 4.41743 13.6868 4.15371 13.3307C4.15371 13.3307 4.29381 13.778 4.52457 14.0761C4.48337 14.0679 4.44216 14.0513 4.40095 14.0347C4.24436 13.9768 4.08777 13.8608 3.95591 13.7283C3.93943 13.9768 3.99712 14.101 4.12074 14.1838C4.26909 14.2832 4.29381 14.3743 4.4504 14.3909C4.60699 14.4075 4.54106 14.4075 4.74709 14.5317C4.95313 14.6477 4.87071 14.4323 5.08499 14.4903C5.29927 14.5566 5.31575 14.424 5.31575 14.424C5.31575 14.424 5.48058 14.5317 5.55476 14.4406C5.62069 14.3412 5.60421 14.1921 5.65366 13.9105C5.7031 13.6289 5.62893 13.6371 5.48883 13.4715C5.35696 13.3058 5.20862 13.107 5.20862 13.107C5.20862 13.107 5.26631 12.8254 5.49707 12.5686C5.72783 12.3036 6.13166 12.0551 6.36242 11.8314C6.61791 11.5912 6.62615 11.3676 6.7745 11.1522C6.93108 10.8209 6.88988 10.7381 7.04647 10.4233C7.07119 10.3653 7.47502 9.99259 7.41733 9.86834C7.26074 9.56187 7.08767 9.28853 6.93933 9.08145C6.98877 9.11458 7.03822 9.156 7.07943 9.18913C7.38437 9.44591 7.69754 9.76895 7.69754 9.76895C7.69754 9.76895 7.95303 9.47076 8.17555 9.23883C8.17555 9.23883 8.6041 8.85781 9.37056 7.97152C9.37056 7.97152 9.00794 8.88266 8.81838 9.32166C8.81838 9.32994 8.81014 9.33823 8.81014 9.34651C9.1398 9.1063 9.48594 8.81639 9.48594 8.81639C9.48594 8.81639 8.6618 10.1417 8.47224 10.9203C8.45576 11.2019 8.58762 12.0799 8.49697 12.5935C8.54642 12.5686 8.58762 12.5521 8.63707 12.5355C9.24694 12.3119 10.0793 12.3284 10.0793 12.3284C9.86505 12.3616 9.60132 12.4444 9.32936 12.5521C8.82662 12.7509 8.30741 13.049 8.09313 13.2975L8.06841 13.3141C7.94479 13.4963 7.84589 13.662 7.79644 13.7697C7.79644 13.7697 8.07665 13.5377 8.5629 13.3969L8.55466 13.4052C8.81014 13.3307 9.30463 13.2147 9.90626 13.1319C10.6398 13.0408 11.5793 13.2064 11.9007 13.2727C11.9749 13.2893 12.0161 13.2975 12.0161 13.2975C11.9914 13.2975 11.9749 13.2975 11.9501 13.2975C11.0106 13.2396 10.3513 13.2644 9.41177 13.5377C9.1398 13.6206 8.75245 13.7862 8.39807 13.9519L8.38983 13.9436C8.38983 13.9436 8.1261 14.0679 7.85413 14.2087C7.73051 14.2667 7.60689 14.3329 7.51623 14.3909C7.4503 14.4323 7.39261 14.4655 7.3514 14.4903C7.22778 14.5814 7.07943 15.0784 6.97229 15.476C6.55198 16.1055 6.05749 16.8261 6.05749 16.8261C6.05749 16.8261 5.43114 17.6627 5.30751 17.9195C5.30751 17.9195 5.01082 18.0437 4.5493 18.3337C4.5493 18.3337 4.85423 17.8864 5.28279 17.7373C5.28279 17.7373 4.8872 17.6296 4.69764 17.7373C4.69764 17.7373 4.79654 17.4308 5.20862 17.348C5.20862 17.348 4.90368 16.9007 4.52457 16.6853C4.39271 16.6108 4.28557 16.5031 4.18667 16.3871C4.12074 16.1304 4.27733 16.0889 4.36798 15.8736C4.47512 15.592 4.38447 15.4014 4.12898 15.302C3.8735 15.2109 3.13176 15.3932 3.13176 15.3932C3.13176 15.3932 3.51911 15.1447 3.81581 15.1198C3.81581 15.1198 3.06583 15.0535 2.33234 14.863C1.72247 14.7057 1.23622 14.7222 0.782941 14.8962C0.403833 15.037 0.626353 15.4594 0.840631 15.6168C1.05491 15.7742 1.33512 15.9067 1.33512 15.9067C1.33512 15.9067 1.22798 15.6085 1.58236 15.4594C1.58236 15.4594 1.44226 15.7825 1.51643 16.031L1.67302 16.1221C1.67302 16.1221 1.59885 15.7245 1.97796 15.5505C1.97796 15.5505 1.7884 15.9813 1.85433 16.2215L2.1263 16.3209C2.1263 16.3209 2.14278 15.7328 2.52189 15.592C2.52189 15.592 2.31586 16.1138 2.4642 16.3706C2.53838 16.4948 2.67024 16.5611 2.87628 16.5942C2.93397 16.6605 2.99166 16.7184 3.03286 16.7764C3.17297 17.0001 3.24714 17.8532 3.5768 18.4662C3.90646 19.0708 4.46688 19.982 5.05203 20.1559C5.63717 20.3216 6.28825 19.9654 6.8157 19.5016L7.30195 19.0377C7.30195 19.0377 6.84043 18.8886 6.52725 18.5076C6.52725 18.5076 6.84043 18.5739 7.02998 18.6318C7.21954 18.6981 7.70578 18.7395 7.70578 18.7395C7.70578 18.7395 7.0135 18.2508 6.78274 18.0603C6.65087 17.9526 6.54374 17.5385 6.4778 17.2154C6.93108 17.6462 7.63161 18.3005 7.93655 18.4993C8.52169 18.8803 8.77718 18.8389 8.77718 18.8389C8.77718 18.8389 9.88978 17.5219 10.2606 17.232C10.2606 17.232 9.18925 17.3894 8.3651 17.4142C8.3651 17.4142 9.58484 17.0166 10.2112 16.7267C10.2112 16.7267 9.32111 16.6025 8.90904 16.7019C8.90904 16.7019 9.98043 16.4368 10.7304 16.0889C11.4804 15.7493 12.8897 15.2606 13.3265 15.2689C13.3265 15.2689 11.7688 15.6913 11.2414 16.3043C11.2414 16.3043 11.8018 16.2049 12.115 16.2546C12.115 16.2546 11.0436 17.0084 10.9035 17.2072C10.9035 17.2072 11.7606 18.11 12.2468 18.5987C12.7331 19.0874 13.4583 19.2282 13.4583 19.2282C13.4583 19.2282 13.2605 18.988 13.071 18.4248C12.9968 18.2094 12.9638 17.994 12.9556 17.7953C13.0051 18.0023 13.1369 18.2343 13.2935 18.491C13.4913 18.7975 14.266 19.6175 14.3319 19.7335C14.7852 19.3856 15.1231 19.3856 15.1231 19.3856C14.9171 19.5181 14.4638 19.9654 14.4638 19.9654C14.4638 19.9654 13.7138 20.8848 13.4748 21.415C13.2358 21.9534 12.9391 23.0633 12.7908 23.3449C12.7908 23.3449 13.7633 21.9202 14.0929 21.3818C14.0929 21.3818 13.549 22.6574 13.1204 23.4609C12.7166 24.2229 12.4694 24.6702 12.354 24.869C12.2716 25.0098 12.1974 25.1423 12.082 25.3577C12.0738 25.3577 12.0738 25.366 12.0655 25.3743C12.0078 25.4737 11.9501 25.5813 11.9089 25.6725C11.8925 25.7056 11.876 25.7387 11.8677 25.7719C11.8512 25.8215 11.604 26.2606 11.9419 26.4179C6.41187 26.509 6.38715 26.509 5.9998 26.5173C5.62893 26.9895 5.06027 27.2877 4.40919 27.2877C4.03008 27.2877 3.66746 27.18 3.36252 26.9977C3.61801 27.122 3.89822 27.1883 4.19491 27.1883C4.78006 27.1883 5.29927 26.9315 5.65366 26.5256C5.95859 26.1777 6.14814 25.7222 6.14814 25.2169C6.14814 24.5542 5.82673 23.9744 5.33224 23.6182C5.31575 23.6182 3.96415 23.5603 3.29659 24.5542C3.29659 24.5542 3.37901 23.8005 3.85701 23.3698C3.88998 23.3366 3.92294 23.3118 3.95591 23.2869C3.88174 23.3201 3.81581 23.3615 3.74163 23.4029C3.0988 23.8005 2.65376 24.5045 2.65376 25.6725C2.65376 25.6725 2.43124 25.0761 2.63727 24.3223C2.68672 24.1401 2.7609 23.9496 2.86804 23.7591C2.48069 24.1152 2.23344 24.6371 2.23344 25.2086C2.23344 25.9127 2.60431 26.5256 3.15649 26.8735L0 28L20.1587 26.3185Z" fill="#E73725"/>
<path d="M12.1813 3.76372C12.1813 3.76372 12.0495 3.84661 11.8599 3.90464C11.6621 3.97096 11.3572 4.0207 11.3572 4.0207C11.3572 4.0207 11.4314 4.1782 11.6292 4.21136C11.7363 4.22794 12.0495 4.12846 12.0495 4.12846C11.9753 4.12846 11.8764 4.07873 11.8764 4.07873C11.9835 4.03728 12.1813 3.76372 12.1813 3.76372Z" fill="#141414"/>
</g>
</svg>
